<mxfile host="app.diagrams.net" agent="Mozilla/5.0 (Windows NT 10.0; Win64; x64) AppleWebKit/537.36 (KHTML, like Gecko) Chrome/135.0.0.0 Safari/537.36" version="26.2.12">
  <diagram id="C5RBs43oDa-KdzZeNtuy" name="Page-1">
    <mxGraphModel dx="1973" dy="1190" grid="1" gridSize="10" guides="1" tooltips="1" connect="1" arrows="1" fold="1" page="0" pageScale="1" pageWidth="1654" pageHeight="1169" background="none" math="0" shadow="0">
      <root>
        <mxCell id="WIyWlLk6GJQsqaUBKTNV-0" />
        <mxCell id="WIyWlLk6GJQsqaUBKTNV-1" parent="WIyWlLk6GJQsqaUBKTNV-0" />
        <mxCell id="zkfFHV4jXpPFQw0GAbJ--0" value="Product" style="swimlane;fontStyle=1;align=center;verticalAlign=top;childLayout=stackLayout;horizontal=1;startSize=26;horizontalStack=0;resizeParent=1;resizeLast=0;collapsible=1;marginBottom=0;rounded=0;shadow=0;strokeWidth=1;" parent="WIyWlLk6GJQsqaUBKTNV-1" vertex="1">
          <mxGeometry x="1230" y="-100" width="220" height="216" as="geometry">
            <mxRectangle x="230" y="140" width="160" height="26" as="alternateBounds" />
          </mxGeometry>
        </mxCell>
        <mxCell id="zkfFHV4jXpPFQw0GAbJ--1" value="length, height" style="text;align=left;verticalAlign=top;spacingLeft=4;spacingRight=4;overflow=hidden;rotatable=0;points=[[0,0.5],[1,0.5]];portConstraint=eastwest;" parent="zkfFHV4jXpPFQw0GAbJ--0" vertex="1">
          <mxGeometry y="26" width="220" height="26" as="geometry" />
        </mxCell>
        <mxCell id="zkfFHV4jXpPFQw0GAbJ--2" value="sensor_position, estimated_position" style="text;align=left;verticalAlign=top;spacingLeft=4;spacingRight=4;overflow=hidden;rotatable=0;points=[[0,0.5],[1,0.5]];portConstraint=eastwest;rounded=0;shadow=0;html=0;" parent="zkfFHV4jXpPFQw0GAbJ--0" vertex="1">
          <mxGeometry y="52" width="220" height="26" as="geometry" />
        </mxCell>
        <mxCell id="zkfFHV4jXpPFQw0GAbJ--3" value="velocity, acceleration" style="text;align=left;verticalAlign=top;spacingLeft=4;spacingRight=4;overflow=hidden;rotatable=0;points=[[0,0.5],[1,0.5]];portConstraint=eastwest;rounded=0;shadow=0;html=0;" parent="zkfFHV4jXpPFQw0GAbJ--0" vertex="1">
          <mxGeometry y="78" width="220" height="26" as="geometry" />
        </mxCell>
        <mxCell id="7nDJ2lL4pcmsVBBuyVaa-0" value="current_error, current_target_finger_id" style="text;align=left;verticalAlign=top;spacingLeft=4;spacingRight=4;overflow=hidden;rotatable=0;points=[[0,0.5],[1,0.5]];portConstraint=eastwest;rounded=0;shadow=0;html=0;" parent="zkfFHV4jXpPFQw0GAbJ--0" vertex="1">
          <mxGeometry y="104" width="220" height="26" as="geometry" />
        </mxCell>
        <mxCell id="7nDJ2lL4pcmsVBBuyVaa-1" value="time_acc, time_const, time_dec" style="text;align=left;verticalAlign=top;spacingLeft=4;spacingRight=4;overflow=hidden;rotatable=0;points=[[0,0.5],[1,0.5]];portConstraint=eastwest;rounded=0;shadow=0;html=0;" parent="zkfFHV4jXpPFQw0GAbJ--0" vertex="1">
          <mxGeometry y="130" width="220" height="26" as="geometry" />
        </mxCell>
        <mxCell id="zkfFHV4jXpPFQw0GAbJ--4" value="" style="line;html=1;strokeWidth=1;align=left;verticalAlign=middle;spacingTop=-1;spacingLeft=3;spacingRight=3;rotatable=0;labelPosition=right;points=[];portConstraint=eastwest;" parent="zkfFHV4jXpPFQw0GAbJ--0" vertex="1">
          <mxGeometry y="156" width="220" height="8" as="geometry" />
        </mxCell>
        <mxCell id="zkfFHV4jXpPFQw0GAbJ--5" value="__init()" style="text;align=left;verticalAlign=top;spacingLeft=4;spacingRight=4;overflow=hidden;rotatable=0;points=[[0,0.5],[1,0.5]];portConstraint=eastwest;" parent="zkfFHV4jXpPFQw0GAbJ--0" vertex="1">
          <mxGeometry y="164" width="220" height="26" as="geometry" />
        </mxCell>
        <mxCell id="7nDJ2lL4pcmsVBBuyVaa-2" value="step()" style="text;align=left;verticalAlign=top;spacingLeft=4;spacingRight=4;overflow=hidden;rotatable=0;points=[[0,0.5],[1,0.5]];portConstraint=eastwest;" parent="zkfFHV4jXpPFQw0GAbJ--0" vertex="1">
          <mxGeometry y="190" width="220" height="26" as="geometry" />
        </mxCell>
        <mxCell id="zkfFHV4jXpPFQw0GAbJ--6" value="CorrectionBelt" style="swimlane;fontStyle=1;align=center;verticalAlign=top;childLayout=stackLayout;horizontal=1;startSize=26;horizontalStack=0;resizeParent=1;resizeLast=0;collapsible=1;marginBottom=0;rounded=0;shadow=0;strokeWidth=1;" parent="WIyWlLk6GJQsqaUBKTNV-1" vertex="1">
          <mxGeometry x="1220" y="510" width="310" height="372" as="geometry">
            <mxRectangle x="130" y="380" width="160" height="26" as="alternateBounds" />
          </mxGeometry>
        </mxCell>
        <mxCell id="zkfFHV4jXpPFQw0GAbJ--7" value="has_sensor: Boolean" style="text;align=left;verticalAlign=top;spacingLeft=4;spacingRight=4;overflow=hidden;rotatable=0;points=[[0,0.5],[1,0.5]];portConstraint=eastwest;" parent="zkfFHV4jXpPFQw0GAbJ--6" vertex="1">
          <mxGeometry y="26" width="310" height="26" as="geometry" />
        </mxCell>
        <mxCell id="zkfFHV4jXpPFQw0GAbJ--10" value="sensor_location" style="text;align=left;verticalAlign=top;spacingLeft=4;spacingRight=4;overflow=hidden;rotatable=0;points=[[0,0.5],[1,0.5]];portConstraint=eastwest;fontStyle=0" parent="zkfFHV4jXpPFQw0GAbJ--6" vertex="1">
          <mxGeometry y="52" width="310" height="26" as="geometry" />
        </mxCell>
        <mxCell id="7nDJ2lL4pcmsVBBuyVaa-9" value="sensor_previous_detect_result" style="text;align=left;verticalAlign=top;spacingLeft=4;spacingRight=4;overflow=hidden;rotatable=0;points=[[0,0.5],[1,0.5]];portConstraint=eastwest;rounded=0;shadow=0;html=0;" parent="zkfFHV4jXpPFQw0GAbJ--6" vertex="1">
          <mxGeometry y="78" width="310" height="26" as="geometry" />
        </mxCell>
        <mxCell id="zkfFHV4jXpPFQw0GAbJ--11" value="sensor_current__detect_result" style="text;align=left;verticalAlign=top;spacingLeft=4;spacingRight=4;overflow=hidden;rotatable=0;points=[[0,0.5],[1,0.5]];portConstraint=eastwest;" parent="zkfFHV4jXpPFQw0GAbJ--6" vertex="1">
          <mxGeometry y="104" width="310" height="26" as="geometry" />
        </mxCell>
        <mxCell id="7nDJ2lL4pcmsVBBuyVaa-10" value="max_acceleration" style="text;align=left;verticalAlign=top;spacingLeft=4;spacingRight=4;overflow=hidden;rotatable=0;points=[[0,0.5],[1,0.5]];portConstraint=eastwest;rounded=0;shadow=0;html=0;" parent="zkfFHV4jXpPFQw0GAbJ--6" vertex="1">
          <mxGeometry y="130" width="310" height="26" as="geometry" />
        </mxCell>
        <mxCell id="zkfFHV4jXpPFQw0GAbJ--8" value="time_acc, time_const, time_dec" style="text;align=left;verticalAlign=top;spacingLeft=4;spacingRight=4;overflow=hidden;rotatable=0;points=[[0,0.5],[1,0.5]];portConstraint=eastwest;rounded=0;shadow=0;html=0;" parent="zkfFHV4jXpPFQw0GAbJ--6" vertex="1">
          <mxGeometry y="156" width="310" height="26" as="geometry" />
        </mxCell>
        <mxCell id="zkfFHV4jXpPFQw0GAbJ--9" value="" style="line;html=1;strokeWidth=1;align=left;verticalAlign=middle;spacingTop=-1;spacingLeft=3;spacingRight=3;rotatable=0;labelPosition=right;points=[];portConstraint=eastwest;" parent="zkfFHV4jXpPFQw0GAbJ--6" vertex="1">
          <mxGeometry y="182" width="310" height="8" as="geometry" />
        </mxCell>
        <mxCell id="7nDJ2lL4pcmsVBBuyVaa-11" value="__init__()" style="text;align=left;verticalAlign=top;spacingLeft=4;spacingRight=4;overflow=hidden;rotatable=0;points=[[0,0.5],[1,0.5]];portConstraint=eastwest;rounded=0;shadow=0;html=0;" parent="zkfFHV4jXpPFQw0GAbJ--6" vertex="1">
          <mxGeometry y="190" width="310" height="26" as="geometry" />
        </mxCell>
        <mxCell id="7nDJ2lL4pcmsVBBuyVaa-12" value="sensor_detect()" style="text;align=left;verticalAlign=top;spacingLeft=4;spacingRight=4;overflow=hidden;rotatable=0;points=[[0,0.5],[1,0.5]];portConstraint=eastwest;rounded=0;shadow=0;html=0;" parent="zkfFHV4jXpPFQw0GAbJ--6" vertex="1">
          <mxGeometry y="216" width="310" height="26" as="geometry" />
        </mxCell>
        <mxCell id="7nDJ2lL4pcmsVBBuyVaa-13" value="execute_action()" style="text;align=left;verticalAlign=top;spacingLeft=4;spacingRight=4;overflow=hidden;rotatable=0;points=[[0,0.5],[1,0.5]];portConstraint=eastwest;rounded=0;shadow=0;html=0;" parent="zkfFHV4jXpPFQw0GAbJ--6" vertex="1">
          <mxGeometry y="242" width="310" height="26" as="geometry" />
        </mxCell>
        <mxCell id="7nDJ2lL4pcmsVBBuyVaa-14" value="correction_step()" style="text;align=left;verticalAlign=top;spacingLeft=4;spacingRight=4;overflow=hidden;rotatable=0;points=[[0,0.5],[1,0.5]];portConstraint=eastwest;rounded=0;shadow=0;html=0;" parent="zkfFHV4jXpPFQw0GAbJ--6" vertex="1">
          <mxGeometry y="268" width="310" height="26" as="geometry" />
        </mxCell>
        <mxCell id="7nDJ2lL4pcmsVBBuyVaa-15" value="speed_up()" style="text;align=left;verticalAlign=top;spacingLeft=4;spacingRight=4;overflow=hidden;rotatable=0;points=[[0,0.5],[1,0.5]];portConstraint=eastwest;rounded=0;shadow=0;html=0;" parent="zkfFHV4jXpPFQw0GAbJ--6" vertex="1">
          <mxGeometry y="294" width="310" height="26" as="geometry" />
        </mxCell>
        <mxCell id="7nDJ2lL4pcmsVBBuyVaa-16" value="slack_off()" style="text;align=left;verticalAlign=top;spacingLeft=4;spacingRight=4;overflow=hidden;rotatable=0;points=[[0,0.5],[1,0.5]];portConstraint=eastwest;rounded=0;shadow=0;html=0;" parent="zkfFHV4jXpPFQw0GAbJ--6" vertex="1">
          <mxGeometry y="320" width="310" height="26" as="geometry" />
        </mxCell>
        <mxCell id="7nDJ2lL4pcmsVBBuyVaa-17" value="slow_down()" style="text;align=left;verticalAlign=top;spacingLeft=4;spacingRight=4;overflow=hidden;rotatable=0;points=[[0,0.5],[1,0.5]];portConstraint=eastwest;rounded=0;shadow=0;html=0;" parent="zkfFHV4jXpPFQw0GAbJ--6" vertex="1">
          <mxGeometry y="346" width="310" height="26" as="geometry" />
        </mxCell>
        <mxCell id="zkfFHV4jXpPFQw0GAbJ--13" value="BeltTypes" style="swimlane;fontStyle=1;align=center;verticalAlign=top;childLayout=stackLayout;horizontal=1;startSize=26;horizontalStack=0;resizeParent=1;resizeLast=0;collapsible=1;marginBottom=0;rounded=0;shadow=0;strokeWidth=1;" parent="WIyWlLk6GJQsqaUBKTNV-1" vertex="1">
          <mxGeometry x="90" y="-120" width="160" height="104" as="geometry">
            <mxRectangle x="340" y="380" width="170" height="26" as="alternateBounds" />
          </mxGeometry>
        </mxCell>
        <mxCell id="zkfFHV4jXpPFQw0GAbJ--14" value="Generating" style="text;align=left;verticalAlign=top;spacingLeft=4;spacingRight=4;overflow=hidden;rotatable=0;points=[[0,0.5],[1,0.5]];portConstraint=eastwest;" parent="zkfFHV4jXpPFQw0GAbJ--13" vertex="1">
          <mxGeometry y="26" width="160" height="26" as="geometry" />
        </mxCell>
        <mxCell id="7nDJ2lL4pcmsVBBuyVaa-3" value="Correction" style="text;align=left;verticalAlign=top;spacingLeft=4;spacingRight=4;overflow=hidden;rotatable=0;points=[[0,0.5],[1,0.5]];portConstraint=eastwest;" parent="zkfFHV4jXpPFQw0GAbJ--13" vertex="1">
          <mxGeometry y="52" width="160" height="26" as="geometry" />
        </mxCell>
        <mxCell id="7nDJ2lL4pcmsVBBuyVaa-4" value="Reception" style="text;align=left;verticalAlign=top;spacingLeft=4;spacingRight=4;overflow=hidden;rotatable=0;points=[[0,0.5],[1,0.5]];portConstraint=eastwest;" parent="zkfFHV4jXpPFQw0GAbJ--13" vertex="1">
          <mxGeometry y="78" width="160" height="26" as="geometry" />
        </mxCell>
        <mxCell id="zkfFHV4jXpPFQw0GAbJ--17" value="Belt" style="swimlane;fontStyle=1;align=center;verticalAlign=top;childLayout=stackLayout;horizontal=1;startSize=26;horizontalStack=0;resizeParent=1;resizeLast=0;collapsible=1;marginBottom=0;rounded=0;shadow=0;strokeWidth=1;" parent="WIyWlLk6GJQsqaUBKTNV-1" vertex="1">
          <mxGeometry x="1370" y="209" width="160" height="216" as="geometry">
            <mxRectangle x="550" y="140" width="160" height="26" as="alternateBounds" />
          </mxGeometry>
        </mxCell>
        <mxCell id="zkfFHV4jXpPFQw0GAbJ--18" value="products: set()" style="text;align=left;verticalAlign=top;spacingLeft=4;spacingRight=4;overflow=hidden;rotatable=0;points=[[0,0.5],[1,0.5]];portConstraint=eastwest;" parent="zkfFHV4jXpPFQw0GAbJ--17" vertex="1">
          <mxGeometry y="26" width="160" height="26" as="geometry" />
        </mxCell>
        <mxCell id="zkfFHV4jXpPFQw0GAbJ--19" value="has_product: Boolean" style="text;align=left;verticalAlign=top;spacingLeft=4;spacingRight=4;overflow=hidden;rotatable=0;points=[[0,0.5],[1,0.5]];portConstraint=eastwest;rounded=0;shadow=0;html=0;" parent="zkfFHV4jXpPFQw0GAbJ--17" vertex="1">
          <mxGeometry y="52" width="160" height="26" as="geometry" />
        </mxCell>
        <mxCell id="zkfFHV4jXpPFQw0GAbJ--20" value="error_to_correct" style="text;align=left;verticalAlign=top;spacingLeft=4;spacingRight=4;overflow=hidden;rotatable=0;points=[[0,0.5],[1,0.5]];portConstraint=eastwest;rounded=0;shadow=0;html=0;" parent="zkfFHV4jXpPFQw0GAbJ--17" vertex="1">
          <mxGeometry y="78" width="160" height="26" as="geometry" />
        </mxCell>
        <mxCell id="zkfFHV4jXpPFQw0GAbJ--21" value="length, location" style="text;align=left;verticalAlign=top;spacingLeft=4;spacingRight=4;overflow=hidden;rotatable=0;points=[[0,0.5],[1,0.5]];portConstraint=eastwest;rounded=0;shadow=0;html=0;" parent="zkfFHV4jXpPFQw0GAbJ--17" vertex="1">
          <mxGeometry y="104" width="160" height="26" as="geometry" />
        </mxCell>
        <mxCell id="zkfFHV4jXpPFQw0GAbJ--22" value="velocity, acceleration" style="text;align=left;verticalAlign=top;spacingLeft=4;spacingRight=4;overflow=hidden;rotatable=0;points=[[0,0.5],[1,0.5]];portConstraint=eastwest;rounded=0;shadow=0;html=0;" parent="zkfFHV4jXpPFQw0GAbJ--17" vertex="1">
          <mxGeometry y="130" width="160" height="26" as="geometry" />
        </mxCell>
        <mxCell id="zkfFHV4jXpPFQw0GAbJ--23" value="" style="line;html=1;strokeWidth=1;align=left;verticalAlign=middle;spacingTop=-1;spacingLeft=3;spacingRight=3;rotatable=0;labelPosition=right;points=[];portConstraint=eastwest;" parent="zkfFHV4jXpPFQw0GAbJ--17" vertex="1">
          <mxGeometry y="156" width="160" height="8" as="geometry" />
        </mxCell>
        <mxCell id="zkfFHV4jXpPFQw0GAbJ--24" value="__init()" style="text;align=left;verticalAlign=top;spacingLeft=4;spacingRight=4;overflow=hidden;rotatable=0;points=[[0,0.5],[1,0.5]];portConstraint=eastwest;" parent="zkfFHV4jXpPFQw0GAbJ--17" vertex="1">
          <mxGeometry y="164" width="160" height="26" as="geometry" />
        </mxCell>
        <mxCell id="zkfFHV4jXpPFQw0GAbJ--25" value="Output As Label" style="text;align=left;verticalAlign=top;spacingLeft=4;spacingRight=4;overflow=hidden;rotatable=0;points=[[0,0.5],[1,0.5]];portConstraint=eastwest;" parent="zkfFHV4jXpPFQw0GAbJ--17" vertex="1">
          <mxGeometry y="190" width="160" height="26" as="geometry" />
        </mxCell>
        <mxCell id="7nDJ2lL4pcmsVBBuyVaa-5" value="BeltActionResult" style="swimlane;fontStyle=1;align=center;verticalAlign=top;childLayout=stackLayout;horizontal=1;startSize=26;horizontalStack=0;resizeParent=1;resizeLast=0;collapsible=1;marginBottom=0;rounded=0;shadow=0;strokeWidth=1;" parent="WIyWlLk6GJQsqaUBKTNV-1" vertex="1">
          <mxGeometry x="330" y="-120" width="160" height="104" as="geometry">
            <mxRectangle x="340" y="380" width="170" height="26" as="alternateBounds" />
          </mxGeometry>
        </mxCell>
        <mxCell id="7nDJ2lL4pcmsVBBuyVaa-6" value="SlackOff" style="text;align=left;verticalAlign=top;spacingLeft=4;spacingRight=4;overflow=hidden;rotatable=0;points=[[0,0.5],[1,0.5]];portConstraint=eastwest;" parent="7nDJ2lL4pcmsVBBuyVaa-5" vertex="1">
          <mxGeometry y="26" width="160" height="26" as="geometry" />
        </mxCell>
        <mxCell id="7nDJ2lL4pcmsVBBuyVaa-7" value="Accelerate" style="text;align=left;verticalAlign=top;spacingLeft=4;spacingRight=4;overflow=hidden;rotatable=0;points=[[0,0.5],[1,0.5]];portConstraint=eastwest;" parent="7nDJ2lL4pcmsVBBuyVaa-5" vertex="1">
          <mxGeometry y="52" width="160" height="26" as="geometry" />
        </mxCell>
        <mxCell id="7nDJ2lL4pcmsVBBuyVaa-8" value="Decelerate" style="text;align=left;verticalAlign=top;spacingLeft=4;spacingRight=4;overflow=hidden;rotatable=0;points=[[0,0.5],[1,0.5]];portConstraint=eastwest;" parent="7nDJ2lL4pcmsVBBuyVaa-5" vertex="1">
          <mxGeometry y="78" width="160" height="26" as="geometry" />
        </mxCell>
        <mxCell id="7nDJ2lL4pcmsVBBuyVaa-18" value="ReceptionBelt" style="swimlane;fontStyle=1;align=center;verticalAlign=top;childLayout=stackLayout;horizontal=1;startSize=26;horizontalStack=0;resizeParent=1;resizeLast=0;collapsible=1;marginBottom=0;rounded=0;shadow=0;strokeWidth=1;" parent="WIyWlLk6GJQsqaUBKTNV-1" vertex="1">
          <mxGeometry x="210" y="320" width="180" height="164" as="geometry">
            <mxRectangle x="130" y="380" width="160" height="26" as="alternateBounds" />
          </mxGeometry>
        </mxCell>
        <mxCell id="7nDJ2lL4pcmsVBBuyVaa-19" value="finger_gap, num_of_finger" style="text;align=left;verticalAlign=top;spacingLeft=4;spacingRight=4;overflow=hidden;rotatable=0;points=[[0,0.5],[1,0.5]];portConstraint=eastwest;" parent="7nDJ2lL4pcmsVBBuyVaa-18" vertex="1">
          <mxGeometry y="26" width="180" height="26" as="geometry" />
        </mxCell>
        <mxCell id="7nDJ2lL4pcmsVBBuyVaa-20" value="length, perimeter" style="text;align=left;verticalAlign=top;spacingLeft=4;spacingRight=4;overflow=hidden;rotatable=0;points=[[0,0.5],[1,0.5]];portConstraint=eastwest;fontStyle=0" parent="7nDJ2lL4pcmsVBBuyVaa-18" vertex="1">
          <mxGeometry y="52" width="180" height="26" as="geometry" />
        </mxCell>
        <mxCell id="7nDJ2lL4pcmsVBBuyVaa-21" value="fingers: dict{&#39;idx&#39;: position}" style="text;align=left;verticalAlign=top;spacingLeft=4;spacingRight=4;overflow=hidden;rotatable=0;points=[[0,0.5],[1,0.5]];portConstraint=eastwest;rounded=0;shadow=0;html=0;" parent="7nDJ2lL4pcmsVBBuyVaa-18" vertex="1">
          <mxGeometry y="78" width="180" height="26" as="geometry" />
        </mxCell>
        <mxCell id="7nDJ2lL4pcmsVBBuyVaa-25" value="" style="line;html=1;strokeWidth=1;align=left;verticalAlign=middle;spacingTop=-1;spacingLeft=3;spacingRight=3;rotatable=0;labelPosition=right;points=[];portConstraint=eastwest;" parent="7nDJ2lL4pcmsVBBuyVaa-18" vertex="1">
          <mxGeometry y="104" width="180" height="8" as="geometry" />
        </mxCell>
        <mxCell id="7nDJ2lL4pcmsVBBuyVaa-26" value="__init__()" style="text;align=left;verticalAlign=top;spacingLeft=4;spacingRight=4;overflow=hidden;rotatable=0;points=[[0,0.5],[1,0.5]];portConstraint=eastwest;rounded=0;shadow=0;html=0;" parent="7nDJ2lL4pcmsVBBuyVaa-18" vertex="1">
          <mxGeometry y="112" width="180" height="26" as="geometry" />
        </mxCell>
        <mxCell id="7nDJ2lL4pcmsVBBuyVaa-27" value="finger_step()" style="text;align=left;verticalAlign=top;spacingLeft=4;spacingRight=4;overflow=hidden;rotatable=0;points=[[0,0.5],[1,0.5]];portConstraint=eastwest;rounded=0;shadow=0;html=0;" parent="7nDJ2lL4pcmsVBBuyVaa-18" vertex="1">
          <mxGeometry y="138" width="180" height="26" as="geometry" />
        </mxCell>
        <mxCell id="7nDJ2lL4pcmsVBBuyVaa-33" value="SmartInfeedSystem" style="swimlane;fontStyle=1;align=center;verticalAlign=top;childLayout=stackLayout;horizontal=1;startSize=26;horizontalStack=0;resizeParent=1;resizeLast=0;collapsible=1;marginBottom=0;rounded=0;shadow=0;strokeWidth=1;" parent="WIyWlLk6GJQsqaUBKTNV-1" vertex="1">
          <mxGeometry x="600" y="30" width="340" height="528" as="geometry">
            <mxRectangle x="130" y="380" width="160" height="26" as="alternateBounds" />
          </mxGeometry>
        </mxCell>
        <mxCell id="7nDJ2lL4pcmsVBBuyVaa-34" value="config, hardcoded, world" style="text;align=left;verticalAlign=top;spacingLeft=4;spacingRight=4;overflow=hidden;rotatable=0;points=[[0,0.5],[1,0.5]];portConstraint=eastwest;" parent="7nDJ2lL4pcmsVBBuyVaa-33" vertex="1">
          <mxGeometry y="26" width="340" height="26" as="geometry" />
        </mxCell>
        <mxCell id="7nDJ2lL4pcmsVBBuyVaa-35" value="belts, products, virtual_fingers, belt_velocity:[]" style="text;align=left;verticalAlign=top;spacingLeft=4;spacingRight=4;overflow=hidden;rotatable=0;points=[[0,0.5],[1,0.5]];portConstraint=eastwest;fontStyle=0" parent="7nDJ2lL4pcmsVBBuyVaa-33" vertex="1">
          <mxGeometry y="52" width="340" height="26" as="geometry" />
        </mxCell>
        <mxCell id="7nDJ2lL4pcmsVBBuyVaa-36" value="current_step, " style="text;align=left;verticalAlign=top;spacingLeft=4;spacingRight=4;overflow=hidden;rotatable=0;points=[[0,0.5],[1,0.5]];portConstraint=eastwest;rounded=0;shadow=0;html=0;" parent="7nDJ2lL4pcmsVBBuyVaa-33" vertex="1">
          <mxGeometry y="78" width="340" height="26" as="geometry" />
        </mxCell>
        <mxCell id="7nDJ2lL4pcmsVBBuyVaa-37" value="max_error, summed_error" style="text;align=left;verticalAlign=top;spacingLeft=4;spacingRight=4;overflow=hidden;rotatable=0;points=[[0,0.5],[1,0.5]];portConstraint=eastwest;" parent="7nDJ2lL4pcmsVBBuyVaa-33" vertex="1">
          <mxGeometry y="104" width="340" height="26" as="geometry" />
        </mxCell>
        <mxCell id="7nDJ2lL4pcmsVBBuyVaa-38" value="counter: within_finger, collision, finger_without_product" style="text;align=left;verticalAlign=top;spacingLeft=4;spacingRight=4;overflow=hidden;rotatable=0;points=[[0,0.5],[1,0.5]];portConstraint=eastwest;rounded=0;shadow=0;html=0;" parent="7nDJ2lL4pcmsVBBuyVaa-33" vertex="1">
          <mxGeometry y="130" width="340" height="26" as="geometry" />
        </mxCell>
        <mxCell id="7nDJ2lL4pcmsVBBuyVaa-39" value="product_length, generate_rate, position_variance, max_acc" style="text;align=left;verticalAlign=top;spacingLeft=4;spacingRight=4;overflow=hidden;rotatable=0;points=[[0,0.5],[1,0.5]];portConstraint=eastwest;rounded=0;shadow=0;html=0;" parent="7nDJ2lL4pcmsVBBuyVaa-33" vertex="1">
          <mxGeometry y="156" width="340" height="26" as="geometry" />
        </mxCell>
        <mxCell id="7nDJ2lL4pcmsVBBuyVaa-47" value="num_CBs, num_sensors" style="text;align=left;verticalAlign=top;spacingLeft=4;spacingRight=4;overflow=hidden;rotatable=0;points=[[0,0.5],[1,0.5]];portConstraint=eastwest;rounded=0;shadow=0;html=0;" parent="7nDJ2lL4pcmsVBBuyVaa-33" vertex="1">
          <mxGeometry y="182" width="340" height="26" as="geometry" />
        </mxCell>
        <mxCell id="7nDJ2lL4pcmsVBBuyVaa-40" value="" style="line;html=1;strokeWidth=1;align=left;verticalAlign=middle;spacingTop=-1;spacingLeft=3;spacingRight=3;rotatable=0;labelPosition=right;points=[];portConstraint=eastwest;" parent="7nDJ2lL4pcmsVBBuyVaa-33" vertex="1">
          <mxGeometry y="208" width="340" height="8" as="geometry" />
        </mxCell>
        <mxCell id="7nDJ2lL4pcmsVBBuyVaa-41" value="__init__()" style="text;align=left;verticalAlign=top;spacingLeft=4;spacingRight=4;overflow=hidden;rotatable=0;points=[[0,0.5],[1,0.5]];portConstraint=eastwest;rounded=0;shadow=0;html=0;" parent="7nDJ2lL4pcmsVBBuyVaa-33" vertex="1">
          <mxGeometry y="216" width="340" height="26" as="geometry" />
        </mxCell>
        <mxCell id="7nDJ2lL4pcmsVBBuyVaa-42" value="__init_belts()" style="text;align=left;verticalAlign=top;spacingLeft=4;spacingRight=4;overflow=hidden;rotatable=0;points=[[0,0.5],[1,0.5]];portConstraint=eastwest;rounded=0;shadow=0;html=0;" parent="7nDJ2lL4pcmsVBBuyVaa-33" vertex="1">
          <mxGeometry y="242" width="340" height="26" as="geometry" />
        </mxCell>
        <mxCell id="7nDJ2lL4pcmsVBBuyVaa-43" value="step()" style="text;align=left;verticalAlign=top;spacingLeft=4;spacingRight=4;overflow=hidden;rotatable=0;points=[[0,0.5],[1,0.5]];portConstraint=eastwest;rounded=0;shadow=0;html=0;" parent="7nDJ2lL4pcmsVBBuyVaa-33" vertex="1">
          <mxGeometry y="268" width="340" height="26" as="geometry" />
        </mxCell>
        <mxCell id="7nDJ2lL4pcmsVBBuyVaa-44" value="move_fingers()" style="text;align=left;verticalAlign=top;spacingLeft=4;spacingRight=4;overflow=hidden;rotatable=0;points=[[0,0.5],[1,0.5]];portConstraint=eastwest;rounded=0;shadow=0;html=0;fillColor=#fff2cc;strokeColor=#d6b656;" parent="7nDJ2lL4pcmsVBBuyVaa-33" vertex="1">
          <mxGeometry y="294" width="340" height="26" as="geometry" />
        </mxCell>
        <mxCell id="7nDJ2lL4pcmsVBBuyVaa-45" value="update_product_on_belts()" style="text;align=left;verticalAlign=top;spacingLeft=4;spacingRight=4;overflow=hidden;rotatable=0;points=[[0,0.5],[1,0.5]];portConstraint=eastwest;rounded=0;shadow=0;html=0;fillColor=#fff2cc;strokeColor=#d6b656;" parent="7nDJ2lL4pcmsVBBuyVaa-33" vertex="1">
          <mxGeometry y="320" width="340" height="26" as="geometry" />
        </mxCell>
        <mxCell id="7nDJ2lL4pcmsVBBuyVaa-46" value="single_correction_algorithm()" style="text;align=left;verticalAlign=top;spacingLeft=4;spacingRight=4;overflow=hidden;rotatable=0;points=[[0,0.5],[1,0.5]];portConstraint=eastwest;rounded=0;shadow=0;html=0;fillColor=#fff2cc;strokeColor=#d6b656;" parent="7nDJ2lL4pcmsVBBuyVaa-33" vertex="1">
          <mxGeometry y="346" width="340" height="26" as="geometry" />
        </mxCell>
        <mxCell id="7nDJ2lL4pcmsVBBuyVaa-48" value="__get_error_to_finger()" style="text;align=left;verticalAlign=top;spacingLeft=4;spacingRight=4;overflow=hidden;rotatable=0;points=[[0,0.5],[1,0.5]];portConstraint=eastwest;rounded=0;shadow=0;html=0;fillColor=#fff2cc;strokeColor=#d6b656;" parent="7nDJ2lL4pcmsVBBuyVaa-33" vertex="1">
          <mxGeometry y="372" width="340" height="26" as="geometry" />
        </mxCell>
        <mxCell id="7nDJ2lL4pcmsVBBuyVaa-49" value="product_step()" style="text;align=left;verticalAlign=top;spacingLeft=4;spacingRight=4;overflow=hidden;rotatable=0;points=[[0,0.5],[1,0.5]];portConstraint=eastwest;rounded=0;shadow=0;html=0;fillColor=#fff2cc;strokeColor=#d6b656;" parent="7nDJ2lL4pcmsVBBuyVaa-33" vertex="1">
          <mxGeometry y="398" width="340" height="26" as="geometry" />
        </mxCell>
        <mxCell id="7nDJ2lL4pcmsVBBuyVaa-53" value="hardcoded_correction()" style="text;align=left;verticalAlign=top;spacingLeft=4;spacingRight=4;overflow=hidden;rotatable=0;points=[[0,0.5],[1,0.5]];portConstraint=eastwest;rounded=0;shadow=0;html=0;fillColor=#fff2cc;strokeColor=#d6b656;" parent="7nDJ2lL4pcmsVBBuyVaa-33" vertex="1">
          <mxGeometry y="424" width="340" height="26" as="geometry" />
        </mxCell>
        <mxCell id="7nDJ2lL4pcmsVBBuyVaa-50" value="__check_throughput_without_product()" style="text;align=left;verticalAlign=top;spacingLeft=4;spacingRight=4;overflow=hidden;rotatable=0;points=[[0,0.5],[1,0.5]];portConstraint=eastwest;rounded=0;shadow=0;html=0;fillColor=#fff2cc;strokeColor=#d6b656;" parent="7nDJ2lL4pcmsVBBuyVaa-33" vertex="1">
          <mxGeometry y="450" width="340" height="26" as="geometry" />
        </mxCell>
        <mxCell id="7nDJ2lL4pcmsVBBuyVaa-51" value="__check_product_finger_collision()" style="text;align=left;verticalAlign=top;spacingLeft=4;spacingRight=4;overflow=hidden;rotatable=0;points=[[0,0.5],[1,0.5]];portConstraint=eastwest;rounded=0;shadow=0;html=0;fillColor=#fff2cc;strokeColor=#d6b656;" parent="7nDJ2lL4pcmsVBBuyVaa-33" vertex="1">
          <mxGeometry y="476" width="340" height="26" as="geometry" />
        </mxCell>
        <mxCell id="9Oh3rnx7zK5S2ZUfCvNK-6" style="edgeStyle=orthogonalEdgeStyle;rounded=0;orthogonalLoop=1;jettySize=auto;html=1;exitX=1;exitY=0.5;exitDx=0;exitDy=0;" parent="7nDJ2lL4pcmsVBBuyVaa-33" source="7nDJ2lL4pcmsVBBuyVaa-52" target="7nDJ2lL4pcmsVBBuyVaa-46" edge="1">
          <mxGeometry relative="1" as="geometry" />
        </mxCell>
        <mxCell id="7nDJ2lL4pcmsVBBuyVaa-52" value="__get_action_time(self, product, belt) -&gt; time_acc, const, dec" style="text;align=left;verticalAlign=top;spacingLeft=4;spacingRight=4;overflow=hidden;rotatable=0;points=[[0,0.5],[1,0.5]];portConstraint=eastwest;rounded=0;shadow=0;html=0;" parent="7nDJ2lL4pcmsVBBuyVaa-33" vertex="1">
          <mxGeometry y="502" width="340" height="26" as="geometry" />
        </mxCell>
        <mxCell id="9Oh3rnx7zK5S2ZUfCvNK-0" style="edgeStyle=orthogonalEdgeStyle;rounded=0;orthogonalLoop=1;jettySize=auto;html=1;exitX=1;exitY=0.5;exitDx=0;exitDy=0;entryX=0;entryY=0.5;entryDx=0;entryDy=0;" parent="WIyWlLk6GJQsqaUBKTNV-1" source="7nDJ2lL4pcmsVBBuyVaa-27" target="7nDJ2lL4pcmsVBBuyVaa-44" edge="1">
          <mxGeometry relative="1" as="geometry" />
        </mxCell>
        <mxCell id="9Oh3rnx7zK5S2ZUfCvNK-3" style="edgeStyle=orthogonalEdgeStyle;rounded=0;orthogonalLoop=1;jettySize=auto;html=1;exitX=0;exitY=0.5;exitDx=0;exitDy=0;" parent="WIyWlLk6GJQsqaUBKTNV-1" source="zkfFHV4jXpPFQw0GAbJ--19" target="7nDJ2lL4pcmsVBBuyVaa-45" edge="1">
          <mxGeometry relative="1" as="geometry">
            <mxPoint x="1010" y="360" as="targetPoint" />
            <Array as="points">
              <mxPoint x="1330" y="274" />
              <mxPoint x="1330" y="360" />
              <mxPoint x="730" y="360" />
            </Array>
          </mxGeometry>
        </mxCell>
        <mxCell id="9Oh3rnx7zK5S2ZUfCvNK-4" style="edgeStyle=orthogonalEdgeStyle;rounded=0;orthogonalLoop=1;jettySize=auto;html=1;exitX=0;exitY=0.5;exitDx=0;exitDy=0;entryX=1;entryY=0.5;entryDx=0;entryDy=0;" parent="WIyWlLk6GJQsqaUBKTNV-1" source="zkfFHV4jXpPFQw0GAbJ--18" target="7nDJ2lL4pcmsVBBuyVaa-45" edge="1">
          <mxGeometry relative="1" as="geometry">
            <mxPoint x="1080" y="440" as="targetPoint" />
            <Array as="points">
              <mxPoint x="1270" y="248" />
              <mxPoint x="1270" y="360" />
              <mxPoint x="1010" y="360" />
            </Array>
          </mxGeometry>
        </mxCell>
        <mxCell id="9Oh3rnx7zK5S2ZUfCvNK-2" style="edgeStyle=orthogonalEdgeStyle;rounded=0;orthogonalLoop=1;jettySize=auto;html=1;exitX=0;exitY=0.5;exitDx=0;exitDy=0;entryX=1;entryY=0.5;entryDx=0;entryDy=0;" parent="WIyWlLk6GJQsqaUBKTNV-1" source="zkfFHV4jXpPFQw0GAbJ--2" target="7nDJ2lL4pcmsVBBuyVaa-45" edge="1">
          <mxGeometry relative="1" as="geometry">
            <mxPoint x="1050" y="340" as="targetPoint" />
            <Array as="points">
              <mxPoint x="1080" y="-35" />
              <mxPoint x="1080" y="360" />
              <mxPoint x="1010" y="360" />
            </Array>
          </mxGeometry>
        </mxCell>
        <mxCell id="9Oh3rnx7zK5S2ZUfCvNK-5" style="edgeStyle=orthogonalEdgeStyle;rounded=0;orthogonalLoop=1;jettySize=auto;html=1;exitX=0;exitY=0.5;exitDx=0;exitDy=0;" parent="WIyWlLk6GJQsqaUBKTNV-1" source="zkfFHV4jXpPFQw0GAbJ--3" target="7nDJ2lL4pcmsVBBuyVaa-45" edge="1">
          <mxGeometry relative="1" as="geometry">
            <Array as="points">
              <mxPoint x="1080" y="-9" />
              <mxPoint x="1080" y="357" />
              <mxPoint x="730" y="357" />
            </Array>
          </mxGeometry>
        </mxCell>
        <mxCell id="DyAQQPeKOM944tEzWXb_-0" value="RL Agent" style="rounded=1;whiteSpace=wrap;html=1;" parent="WIyWlLk6GJQsqaUBKTNV-1" vertex="1">
          <mxGeometry x="589.5" y="1014" width="76" height="23" as="geometry" />
        </mxCell>
        <mxCell id="DyAQQPeKOM944tEzWXb_-7" style="edgeStyle=orthogonalEdgeStyle;rounded=0;orthogonalLoop=1;jettySize=auto;html=1;exitX=0.25;exitY=0;exitDx=0;exitDy=0;" parent="WIyWlLk6GJQsqaUBKTNV-1" source="DyAQQPeKOM944tEzWXb_-1" target="DyAQQPeKOM944tEzWXb_-0" edge="1">
          <mxGeometry relative="1" as="geometry">
            <Array as="points">
              <mxPoint x="320" y="980" />
              <mxPoint x="639" y="980" />
            </Array>
            <mxPoint x="674" y="989" as="targetPoint" />
          </mxGeometry>
        </mxCell>
        <mxCell id="DyAQQPeKOM944tEzWXb_-8" style="edgeStyle=orthogonalEdgeStyle;rounded=0;orthogonalLoop=1;jettySize=auto;html=1;exitX=0.75;exitY=0;exitDx=0;exitDy=0;entryX=0.25;entryY=0;entryDx=0;entryDy=0;" parent="WIyWlLk6GJQsqaUBKTNV-1" source="DyAQQPeKOM944tEzWXb_-1" target="DyAQQPeKOM944tEzWXb_-0" edge="1">
          <mxGeometry relative="1" as="geometry">
            <Array as="points">
              <mxPoint x="380" y="1000" />
              <mxPoint x="608" y="1000" />
            </Array>
          </mxGeometry>
        </mxCell>
        <mxCell id="DyAQQPeKOM944tEzWXb_-1" value="Smart Infeed System&lt;br&gt;(Environment)" style="rounded=1;whiteSpace=wrap;html=1;" parent="WIyWlLk6GJQsqaUBKTNV-1" vertex="1">
          <mxGeometry x="290" y="1018" width="120" height="50" as="geometry" />
        </mxCell>
        <mxCell id="DyAQQPeKOM944tEzWXb_-6" value="Reward T+n" style="text;html=1;align=center;verticalAlign=middle;resizable=0;points=[];autosize=1;strokeColor=none;fillColor=none;" parent="WIyWlLk6GJQsqaUBKTNV-1" vertex="1">
          <mxGeometry x="444" y="980" width="90" height="30" as="geometry" />
        </mxCell>
        <mxCell id="3yA3V1FnL_FEUBAhLKrE-2" style="edgeStyle=orthogonalEdgeStyle;rounded=0;orthogonalLoop=1;jettySize=auto;html=1;entryX=1;entryY=0.5;entryDx=0;entryDy=0;exitX=0.497;exitY=1.022;exitDx=0;exitDy=0;exitPerimeter=0;" parent="WIyWlLk6GJQsqaUBKTNV-1" source="DyAQQPeKOM944tEzWXb_-10" target="3yA3V1FnL_FEUBAhLKrE-1" edge="1">
          <mxGeometry relative="1" as="geometry">
            <Array as="points">
              <mxPoint x="537" y="1148" />
            </Array>
            <mxPoint x="537" y="1137" as="sourcePoint" />
            <mxPoint x="492" y="1148" as="targetPoint" />
          </mxGeometry>
        </mxCell>
        <mxCell id="DyAQQPeKOM944tEzWXb_-10" value="Motion Profile at T" style="text;html=1;align=center;verticalAlign=middle;resizable=0;points=[];autosize=1;strokeColor=none;fillColor=none;" parent="WIyWlLk6GJQsqaUBKTNV-1" vertex="1">
          <mxGeometry x="480" y="1098" width="115" height="26" as="geometry" />
        </mxCell>
        <mxCell id="DyAQQPeKOM944tEzWXb_-11" value="vel, acc, jerk..." style="text;html=1;align=center;verticalAlign=middle;resizable=0;points=[];autosize=1;strokeColor=none;fillColor=none;" parent="WIyWlLk6GJQsqaUBKTNV-1" vertex="1">
          <mxGeometry x="357" y="1098" width="100" height="30" as="geometry" />
        </mxCell>
        <mxCell id="DyAQQPeKOM944tEzWXb_-14" value="&lt;b&gt;Observation&lt;/b&gt;" style="swimlane;fontStyle=0;childLayout=stackLayout;horizontal=1;startSize=26;fillColor=none;horizontalStack=0;resizeParent=1;resizeParentMax=0;resizeLast=0;collapsible=1;marginBottom=0;whiteSpace=wrap;html=1;" parent="WIyWlLk6GJQsqaUBKTNV-1" vertex="1">
          <mxGeometry x="740" y="1053" width="250" height="104" as="geometry" />
        </mxCell>
        <mxCell id="DyAQQPeKOM944tEzWXb_-16" value="Product: error to correct" style="text;strokeColor=none;fillColor=none;align=left;verticalAlign=top;spacingLeft=4;spacingRight=4;overflow=hidden;rotatable=0;points=[[0,0.5],[1,0.5]];portConstraint=eastwest;whiteSpace=wrap;html=1;" parent="DyAQQPeKOM944tEzWXb_-14" vertex="1">
          <mxGeometry y="26" width="250" height="26" as="geometry" />
        </mxCell>
        <mxCell id="DyAQQPeKOM944tEzWXb_-17" value="Product: distance to its previous product" style="text;strokeColor=none;fillColor=none;align=left;verticalAlign=top;spacingLeft=4;spacingRight=4;overflow=hidden;rotatable=0;points=[[0,0.5],[1,0.5]];portConstraint=eastwest;whiteSpace=wrap;html=1;" parent="DyAQQPeKOM944tEzWXb_-14" vertex="1">
          <mxGeometry y="52" width="250" height="26" as="geometry" />
        </mxCell>
        <mxCell id="I2hdemAFNjAs-Vz9kMrf-0" value="&lt;font color=&quot;#cccccc&quot;&gt;System: idx (idx for correction belts)&lt;/font&gt;" style="text;strokeColor=none;fillColor=none;align=left;verticalAlign=top;spacingLeft=4;spacingRight=4;overflow=hidden;rotatable=0;points=[[0,0.5],[1,0.5]];portConstraint=eastwest;whiteSpace=wrap;html=1;" parent="DyAQQPeKOM944tEzWXb_-14" vertex="1">
          <mxGeometry y="78" width="250" height="26" as="geometry" />
        </mxCell>
        <mxCell id="DyAQQPeKOM944tEzWXb_-18" value="&lt;b&gt;Reward&lt;/b&gt;" style="swimlane;fontStyle=0;childLayout=stackLayout;horizontal=1;startSize=26;fillColor=none;horizontalStack=0;resizeParent=1;resizeParentMax=0;resizeLast=0;collapsible=1;marginBottom=0;whiteSpace=wrap;html=1;" parent="WIyWlLk6GJQsqaUBKTNV-1" vertex="1">
          <mxGeometry x="740" y="790" width="250" height="130" as="geometry" />
        </mxCell>
        <mxCell id="DyAQQPeKOM944tEzWXb_-20" value="Error: + for low error bias, vice verse" style="text;strokeColor=none;fillColor=none;align=left;verticalAlign=top;spacingLeft=4;spacingRight=4;overflow=hidden;rotatable=0;points=[[0,0.5],[1,0.5]];portConstraint=eastwest;whiteSpace=wrap;html=1;" parent="DyAQQPeKOM944tEzWXb_-18" vertex="1">
          <mxGeometry y="26" width="250" height="26" as="geometry" />
        </mxCell>
        <mxCell id="DyAQQPeKOM944tEzWXb_-21" value="Velocity: + for low velocity bias, vice verse" style="text;strokeColor=none;fillColor=none;align=left;verticalAlign=top;spacingLeft=4;spacingRight=4;overflow=hidden;rotatable=0;points=[[0,0.5],[1,0.5]];portConstraint=eastwest;whiteSpace=wrap;html=1;" parent="DyAQQPeKOM944tEzWXb_-18" vertex="1">
          <mxGeometry y="52" width="250" height="26" as="geometry" />
        </mxCell>
        <mxCell id="DyAQQPeKOM944tEzWXb_-19" value="Counter: + for throughputs, - for collisions" style="text;strokeColor=none;fillColor=none;align=left;verticalAlign=top;spacingLeft=4;spacingRight=4;overflow=hidden;rotatable=0;points=[[0,0.5],[1,0.5]];portConstraint=eastwest;whiteSpace=wrap;html=1;" parent="DyAQQPeKOM944tEzWXb_-18" vertex="1">
          <mxGeometry y="78" width="250" height="26" as="geometry" />
        </mxCell>
        <mxCell id="DyAQQPeKOM944tEzWXb_-94" value="Limit: - if max/min vel, acc are exceeded" style="text;strokeColor=none;fillColor=none;align=left;verticalAlign=top;spacingLeft=4;spacingRight=4;overflow=hidden;rotatable=0;points=[[0,0.5],[1,0.5]];portConstraint=eastwest;whiteSpace=wrap;html=1;" parent="DyAQQPeKOM944tEzWXb_-18" vertex="1">
          <mxGeometry y="104" width="250" height="26" as="geometry" />
        </mxCell>
        <mxCell id="DyAQQPeKOM944tEzWXb_-22" value="Observation: errot_to_correct" style="text;html=1;align=center;verticalAlign=middle;resizable=0;points=[];autosize=1;strokeColor=none;fillColor=none;" parent="WIyWlLk6GJQsqaUBKTNV-1" vertex="1">
          <mxGeometry x="399" y="950" width="180" height="30" as="geometry" />
        </mxCell>
        <mxCell id="DyAQQPeKOM944tEzWXb_-23" value="&lt;b&gt;State&lt;/b&gt;" style="swimlane;fontStyle=0;childLayout=stackLayout;horizontal=1;startSize=26;fillColor=none;horizontalStack=0;resizeParent=1;resizeParentMax=0;resizeLast=0;collapsible=1;marginBottom=0;whiteSpace=wrap;html=1;" parent="WIyWlLk6GJQsqaUBKTNV-1" vertex="1">
          <mxGeometry x="740" y="935" width="250" height="104" as="geometry" />
        </mxCell>
        <mxCell id="DyAQQPeKOM944tEzWXb_-24" value="AskForAction: type&amp;nbsp;&lt;b&gt;Boolean&lt;/b&gt;" style="text;strokeColor=none;fillColor=none;align=left;verticalAlign=top;spacingLeft=4;spacingRight=4;overflow=hidden;rotatable=0;points=[[0,0.5],[1,0.5]];portConstraint=eastwest;whiteSpace=wrap;html=1;" parent="DyAQQPeKOM944tEzWXb_-23" vertex="1">
          <mxGeometry y="26" width="250" height="26" as="geometry" />
        </mxCell>
        <mxCell id="DyAQQPeKOM944tEzWXb_-26" value="If CB not ask for action, move as master belt" style="text;strokeColor=none;fillColor=none;align=left;verticalAlign=top;spacingLeft=4;spacingRight=4;overflow=hidden;rotatable=0;points=[[0,0.5],[1,0.5]];portConstraint=eastwest;whiteSpace=wrap;html=1;" parent="DyAQQPeKOM944tEzWXb_-23" vertex="1">
          <mxGeometry y="52" width="250" height="26" as="geometry" />
        </mxCell>
        <mxCell id="DyAQQPeKOM944tEzWXb_-27" value="If CB ask for action, generate motion profiles" style="text;strokeColor=none;fillColor=none;align=left;verticalAlign=top;spacingLeft=4;spacingRight=4;overflow=hidden;rotatable=0;points=[[0,0.5],[1,0.5]];portConstraint=eastwest;whiteSpace=wrap;html=1;" parent="DyAQQPeKOM944tEzWXb_-23" vertex="1">
          <mxGeometry y="78" width="250" height="26" as="geometry" />
        </mxCell>
        <mxCell id="DyAQQPeKOM944tEzWXb_-89" value="&lt;b&gt;Action&lt;/b&gt;" style="swimlane;fontStyle=0;childLayout=stackLayout;horizontal=1;startSize=26;fillColor=none;horizontalStack=0;resizeParent=1;resizeParentMax=0;resizeLast=0;collapsible=1;marginBottom=0;whiteSpace=wrap;html=1;swimlaneFillColor=default;" parent="WIyWlLk6GJQsqaUBKTNV-1" vertex="1">
          <mxGeometry x="740" y="1177" width="250" height="104" as="geometry" />
        </mxCell>
        <mxCell id="DyAQQPeKOM944tEzWXb_-90" value="A array of shape (1, &lt;font color=&quot;#cccccc&quot;&gt;3&lt;/font&gt;): &lt;b&gt;[&lt;font color=&quot;#cccccc&quot;&gt;k0, k1,&lt;/font&gt; p1]&lt;/b&gt;" style="text;strokeColor=none;fillColor=none;align=left;verticalAlign=top;spacingLeft=4;spacingRight=4;overflow=hidden;rotatable=0;points=[[0,0.5],[1,0.5]];portConstraint=eastwest;whiteSpace=wrap;html=1;" parent="DyAQQPeKOM944tEzWXb_-89" vertex="1">
          <mxGeometry y="26" width="250" height="26" as="geometry" />
        </mxCell>
        <mxCell id="DyAQQPeKOM944tEzWXb_-93" value="&lt;font color=&quot;#cccccc&quot;&gt;k0, k1 corresponds to start and end acc&lt;/font&gt;" style="text;strokeColor=none;fillColor=none;align=left;verticalAlign=top;spacingLeft=4;spacingRight=4;overflow=hidden;rotatable=0;points=[[0,0.5],[1,0.5]];portConstraint=eastwest;whiteSpace=wrap;html=1;" parent="DyAQQPeKOM944tEzWXb_-89" vertex="1">
          <mxGeometry y="52" width="250" height="26" as="geometry" />
        </mxCell>
        <mxCell id="DyAQQPeKOM944tEzWXb_-91" value="p1 is the end position of master belt" style="text;strokeColor=none;fillColor=none;align=left;verticalAlign=top;spacingLeft=4;spacingRight=4;overflow=hidden;rotatable=0;points=[[0,0.5],[1,0.5]];portConstraint=eastwest;whiteSpace=wrap;html=1;" parent="DyAQQPeKOM944tEzWXb_-89" vertex="1">
          <mxGeometry y="78" width="250" height="26" as="geometry" />
        </mxCell>
        <mxCell id="3yA3V1FnL_FEUBAhLKrE-3" style="edgeStyle=orthogonalEdgeStyle;rounded=0;orthogonalLoop=1;jettySize=auto;html=1;exitX=0;exitY=0.5;exitDx=0;exitDy=0;" parent="WIyWlLk6GJQsqaUBKTNV-1" source="3yA3V1FnL_FEUBAhLKrE-1" edge="1">
          <mxGeometry relative="1" as="geometry">
            <mxPoint x="407" y="1125" as="targetPoint" />
          </mxGeometry>
        </mxCell>
        <mxCell id="3yA3V1FnL_FEUBAhLKrE-1" value="Function Block" style="rounded=0;whiteSpace=wrap;html=1;" parent="WIyWlLk6GJQsqaUBKTNV-1" vertex="1">
          <mxGeometry x="417" y="1133" width="95" height="30" as="geometry" />
        </mxCell>
        <mxCell id="m8DkUE3OkQOeDLnAFIrr-5" value="&lt;font style=&quot;font-size: 8px;&quot;&gt;n steps inside the loop&lt;br&gt;till asking for new actions&lt;/font&gt;" style="text;html=1;align=center;verticalAlign=middle;resizable=0;points=[];autosize=1;strokeColor=none;fillColor=none;" parent="WIyWlLk6GJQsqaUBKTNV-1" vertex="1">
          <mxGeometry x="417" y="1021" width="107" height="41" as="geometry" />
        </mxCell>
        <mxCell id="d-hZ3jwBHdceiBEyUTI2-7" value="DwellDwellLaw.cs" style="swimlane;fontStyle=1;align=center;verticalAlign=top;childLayout=stackLayout;horizontal=1;startSize=26;horizontalStack=0;resizeParent=1;resizeParentMax=0;resizeLast=0;collapsible=1;marginBottom=0;whiteSpace=wrap;html=1;" parent="WIyWlLk6GJQsqaUBKTNV-1" vertex="1">
          <mxGeometry x="1749" y="110" width="500" height="710" as="geometry" />
        </mxCell>
        <mxCell id="d-hZ3jwBHdceiBEyUTI2-8" value="&lt;b style=&quot;border-color: var(--border-color);&quot;&gt;Cm&lt;/b&gt;: Gradient Characteristic Value" style="text;strokeColor=none;fillColor=none;align=left;verticalAlign=top;spacingLeft=4;spacingRight=4;overflow=hidden;rotatable=0;points=[[0,0.5],[1,0.5]];portConstraint=eastwest;whiteSpace=wrap;html=1;" parent="d-hZ3jwBHdceiBEyUTI2-7" vertex="1">
          <mxGeometry y="26" width="500" height="26" as="geometry" />
        </mxCell>
        <mxCell id="d-hZ3jwBHdceiBEyUTI2-11" value="&lt;b&gt;Ck&lt;/b&gt;: Curvature Characteristic Value" style="text;strokeColor=none;fillColor=none;align=left;verticalAlign=top;spacingLeft=4;spacingRight=4;overflow=hidden;rotatable=0;points=[[0,0.5],[1,0.5]];portConstraint=eastwest;whiteSpace=wrap;html=1;" parent="d-hZ3jwBHdceiBEyUTI2-7" vertex="1">
          <mxGeometry y="52" width="500" height="26" as="geometry" />
        </mxCell>
        <mxCell id="d-hZ3jwBHdceiBEyUTI2-12" value="&lt;b&gt;c&lt;/b&gt;: Prozentual curve part of motion profile, &lt;b&gt;camSegment.C ∈ （0,1)&lt;/b&gt;" style="text;strokeColor=none;fillColor=none;align=left;verticalAlign=top;spacingLeft=4;spacingRight=4;overflow=hidden;rotatable=0;points=[[0,0.5],[1,0.5]];portConstraint=eastwest;whiteSpace=wrap;html=1;" parent="d-hZ3jwBHdceiBEyUTI2-7" vertex="1">
          <mxGeometry y="78" width="500" height="26" as="geometry" />
        </mxCell>
        <mxCell id="d-hZ3jwBHdceiBEyUTI2-13" value="&lt;b&gt;λ&lt;/b&gt;: Infection point, 0.5 is in the middle, 1&amp;amp;0 at the border, &lt;b&gt;camSegment.&lt;/b&gt;&lt;b style=&quot;border-color: var(--border-color);&quot;&gt;λ&lt;/b&gt;" style="text;strokeColor=none;fillColor=none;align=left;verticalAlign=top;spacingLeft=4;spacingRight=4;overflow=hidden;rotatable=0;points=[[0,0.5],[1,0.5]];portConstraint=eastwest;whiteSpace=wrap;html=1;" parent="d-hZ3jwBHdceiBEyUTI2-7" vertex="1">
          <mxGeometry y="104" width="500" height="26" as="geometry" />
        </mxCell>
        <mxCell id="d-hZ3jwBHdceiBEyUTI2-9" value="" style="line;strokeWidth=1;fillColor=none;align=left;verticalAlign=middle;spacingTop=-1;spacingLeft=3;spacingRight=3;rotatable=0;labelPosition=right;points=[];portConstraint=eastwest;strokeColor=inherit;" parent="d-hZ3jwBHdceiBEyUTI2-7" vertex="1">
          <mxGeometry y="130" width="500" height="8" as="geometry" />
        </mxCell>
        <mxCell id="d-hZ3jwBHdceiBEyUTI2-10" value="&lt;b&gt;YStartDwellVelocity()&amp;nbsp;&lt;/b&gt;= camSegment.YEnd - camSegment.VEnd / f&#39;(1) * X&lt;sub&gt;scale&lt;/sub&gt;" style="text;strokeColor=none;fillColor=none;align=left;verticalAlign=top;spacingLeft=4;spacingRight=4;overflow=hidden;rotatable=0;points=[[0,0.5],[1,0.5]];portConstraint=eastwest;whiteSpace=wrap;html=1;" parent="d-hZ3jwBHdceiBEyUTI2-7" vertex="1">
          <mxGeometry y="138" width="500" height="26" as="geometry" />
        </mxCell>
        <mxCell id="TG3gtnt5EF_iq5fIFMWk-9" value="&lt;b&gt;YEndDwellVelocity()&lt;/b&gt;&lt;b style=&quot;border-color: var(--border-color);&quot;&gt;&amp;nbsp;&lt;/b&gt;= camSegment.YStart + camSegment.VEnd / f&#39;(1) * X&lt;sub style=&quot;border-color: var(--border-color);&quot;&gt;scale&lt;/sub&gt;" style="text;strokeColor=none;fillColor=none;align=left;verticalAlign=top;spacingLeft=4;spacingRight=4;overflow=hidden;rotatable=0;points=[[0,0.5],[1,0.5]];portConstraint=eastwest;whiteSpace=wrap;html=1;" parent="d-hZ3jwBHdceiBEyUTI2-7" vertex="1">
          <mxGeometry y="164" width="500" height="26" as="geometry" />
        </mxCell>
        <mxCell id="TG3gtnt5EF_iq5fIFMWk-10" value="&lt;b&gt;YStartVelocityDwell()&lt;/b&gt;&lt;b style=&quot;border-color: var(--border-color);&quot;&gt;&amp;nbsp;&lt;/b&gt;= camSegment.YEnd - camSegment.VStart / f&#39;(0) * X&lt;sub style=&quot;border-color: var(--border-color);&quot;&gt;scale&lt;/sub&gt;" style="text;strokeColor=none;fillColor=none;align=left;verticalAlign=top;spacingLeft=4;spacingRight=4;overflow=hidden;rotatable=0;points=[[0,0.5],[1,0.5]];portConstraint=eastwest;whiteSpace=wrap;html=1;" parent="d-hZ3jwBHdceiBEyUTI2-7" vertex="1">
          <mxGeometry y="190" width="500" height="26" as="geometry" />
        </mxCell>
        <mxCell id="d-hZ3jwBHdceiBEyUTI2-15" value="&lt;b&gt;YEndVelocityDwell()&lt;/b&gt;&lt;b style=&quot;border-color: var(--border-color);&quot;&gt;&amp;nbsp;&lt;/b&gt;= camSegment.YStart + camSegment.VStart / f&#39;(0) * X&lt;sub style=&quot;border-color: var(--border-color);&quot;&gt;scale&lt;/sub&gt;" style="text;strokeColor=none;fillColor=none;align=left;verticalAlign=top;spacingLeft=4;spacingRight=4;overflow=hidden;rotatable=0;points=[[0,0.5],[1,0.5]];portConstraint=eastwest;whiteSpace=wrap;html=1;" parent="d-hZ3jwBHdceiBEyUTI2-7" vertex="1">
          <mxGeometry y="216" width="500" height="26" as="geometry" />
        </mxCell>
        <mxCell id="d-hZ3jwBHdceiBEyUTI2-17" value="&lt;b&gt;GradientStartingPoint()&lt;/b&gt;&amp;nbsp;=&amp;nbsp; Y&lt;sub style=&quot;border-color: var(--border-color);&quot;&gt;scale&lt;/sub&gt;&amp;nbsp;/ X&lt;sub style=&quot;border-color: var(--border-color);&quot;&gt;scale &lt;/sub&gt;&lt;span style=&quot;border-color: var(--border-color);&quot;&gt;* f&#39;(0)&lt;/span&gt;" style="text;strokeColor=none;fillColor=none;align=left;verticalAlign=top;spacingLeft=4;spacingRight=4;overflow=hidden;rotatable=0;points=[[0,0.5],[1,0.5]];portConstraint=eastwest;whiteSpace=wrap;html=1;" parent="d-hZ3jwBHdceiBEyUTI2-7" vertex="1">
          <mxGeometry y="242" width="500" height="26" as="geometry" />
        </mxCell>
        <mxCell id="TG3gtnt5EF_iq5fIFMWk-11" value="&lt;b&gt;GradientEndPoint()&lt;/b&gt;&amp;nbsp;=&amp;nbsp; Y&lt;sub style=&quot;border-color: var(--border-color);&quot;&gt;scale&lt;/sub&gt;&amp;nbsp;/ X&lt;sub style=&quot;border-color: var(--border-color);&quot;&gt;scale&amp;nbsp;&lt;/sub&gt;* f&#39;(1)" style="text;strokeColor=none;fillColor=none;align=left;verticalAlign=top;spacingLeft=4;spacingRight=4;overflow=hidden;rotatable=0;points=[[0,0.5],[1,0.5]];portConstraint=eastwest;whiteSpace=wrap;html=1;" parent="d-hZ3jwBHdceiBEyUTI2-7" vertex="1">
          <mxGeometry y="268" width="500" height="26" as="geometry" />
        </mxCell>
        <mxCell id="d-hZ3jwBHdceiBEyUTI2-20" value="CDwellVelocity()&lt;span style=&quot;font-weight: normal;&quot;&gt;: rval = (1/|m&lt;sub&gt;1&lt;/sub&gt;| - 1) * Cm / (1-Cm)&lt;/span&gt;" style="text;strokeColor=none;fillColor=none;align=left;verticalAlign=top;spacingLeft=4;spacingRight=4;overflow=hidden;rotatable=0;points=[[0,0.5],[1,0.5]];portConstraint=eastwest;whiteSpace=wrap;html=1;fontStyle=1" parent="d-hZ3jwBHdceiBEyUTI2-7" vertex="1">
          <mxGeometry y="294" width="500" height="26" as="geometry" />
        </mxCell>
        <mxCell id="A-GJT8r7pYPnGmrL0-Lr-0" value="CVelocityDwell()&lt;span style=&quot;font-weight: normal;&quot;&gt;: rval = (1/|m&lt;/span&gt;&lt;sub style=&quot;border-color: var(--border-color); font-weight: 400;&quot;&gt;0&lt;/sub&gt;&lt;span style=&quot;font-weight: 400;&quot;&gt;| - 1) * Cm / (1-Cm), rval = min(max(1, rval), 0)&lt;/span&gt;" style="text;strokeColor=none;fillColor=none;align=left;verticalAlign=top;spacingLeft=4;spacingRight=4;overflow=hidden;rotatable=0;points=[[0,0.5],[1,0.5]];portConstraint=eastwest;whiteSpace=wrap;html=1;fontStyle=1" parent="d-hZ3jwBHdceiBEyUTI2-7" vertex="1">
          <mxGeometry y="320" width="500" height="26" as="geometry" />
        </mxCell>
        <mxCell id="d-hZ3jwBHdceiBEyUTI2-19" value="&lt;b&gt;PreCalculations()&lt;/b&gt;: calculate all parameters needed using the functions defined before" style="text;strokeColor=none;fillColor=none;align=left;verticalAlign=top;spacingLeft=4;spacingRight=4;overflow=hidden;rotatable=0;points=[[0,0.5],[1,0.5]];portConstraint=eastwest;whiteSpace=wrap;html=1;" parent="d-hZ3jwBHdceiBEyUTI2-7" vertex="1">
          <mxGeometry y="346" width="500" height="26" as="geometry" />
        </mxCell>
        <mxCell id="d-hZ3jwBHdceiBEyUTI2-18" value="&lt;b&gt;IsCValid(&lt;/b&gt;motionLaw, leftBorderCondition, rightBorderCondition, c&lt;b&gt;)&lt;/b&gt;" style="text;strokeColor=none;fillColor=none;align=left;verticalAlign=top;spacingLeft=4;spacingRight=4;overflow=hidden;rotatable=0;points=[[0,0.5],[1,0.5]];portConstraint=eastwest;whiteSpace=wrap;html=1;" parent="d-hZ3jwBHdceiBEyUTI2-7" vertex="1">
          <mxGeometry y="372" width="500" height="26" as="geometry" />
        </mxCell>
        <mxCell id="d-hZ3jwBHdceiBEyUTI2-16" value="&lt;b&gt;IsCValid&lt;/b&gt;(camSegment)" style="text;strokeColor=none;fillColor=none;align=left;verticalAlign=top;spacingLeft=4;spacingRight=4;overflow=hidden;rotatable=0;points=[[0,0.5],[1,0.5]];portConstraint=eastwest;whiteSpace=wrap;html=1;" parent="d-hZ3jwBHdceiBEyUTI2-7" vertex="1">
          <mxGeometry y="398" width="500" height="26" as="geometry" />
        </mxCell>
        <mxCell id="d-hZ3jwBHdceiBEyUTI2-14" value="&lt;b&gt;K1&lt;/b&gt;(c, λ, Cm) = 2*c*λ / (c+(1-c)*Cm)" style="text;strokeColor=none;fillColor=none;align=left;verticalAlign=top;spacingLeft=4;spacingRight=4;overflow=hidden;rotatable=0;points=[[0,0.5],[1,0.5]];portConstraint=eastwest;whiteSpace=wrap;html=1;" parent="d-hZ3jwBHdceiBEyUTI2-7" vertex="1">
          <mxGeometry y="424" width="500" height="26" as="geometry" />
        </mxCell>
        <mxCell id="A-GJT8r7pYPnGmrL0-Lr-2" value="&lt;b style=&quot;border-color: var(--border-color);&quot;&gt;K2&lt;/b&gt;(c, λ, x) = x / (2*c*λ)" style="text;strokeColor=none;fillColor=none;align=left;verticalAlign=top;spacingLeft=4;spacingRight=4;overflow=hidden;rotatable=0;points=[[0,0.5],[1,0.5]];portConstraint=eastwest;whiteSpace=wrap;html=1;" parent="d-hZ3jwBHdceiBEyUTI2-7" vertex="1">
          <mxGeometry y="450" width="500" height="26" as="geometry" />
        </mxCell>
        <mxCell id="A-GJT8r7pYPnGmrL0-Lr-4" value="&lt;b style=&quot;border-color: var(--border-color);&quot;&gt;K3&lt;/b&gt;(c, λ, Cm, x) = (c*λ + (x-c*λ)*Cm) / (c+(1-c)*Cm)" style="text;strokeColor=none;fillColor=none;align=left;verticalAlign=top;spacingLeft=4;spacingRight=4;overflow=hidden;rotatable=0;points=[[0,0.5],[1,0.5]];portConstraint=eastwest;whiteSpace=wrap;html=1;" parent="d-hZ3jwBHdceiBEyUTI2-7" vertex="1">
          <mxGeometry y="476" width="500" height="26" as="geometry" />
        </mxCell>
        <mxCell id="A-GJT8r7pYPnGmrL0-Lr-5" value="&lt;b style=&quot;border-color: var(--border-color);&quot;&gt;K4&lt;/b&gt;(c, λ, Cm) = ( (2*λ-1)*c + (1-c)*Cm ) / (c + (1-c)*Cm)" style="text;strokeColor=none;fillColor=none;align=left;verticalAlign=top;spacingLeft=4;spacingRight=4;overflow=hidden;rotatable=0;points=[[0,0.5],[1,0.5]];portConstraint=eastwest;whiteSpace=wrap;html=1;" parent="d-hZ3jwBHdceiBEyUTI2-7" vertex="1">
          <mxGeometry y="502" width="500" height="26" as="geometry" />
        </mxCell>
        <mxCell id="A-GJT8r7pYPnGmrL0-Lr-3" value="&lt;b style=&quot;border-color: var(--border-color);&quot;&gt;K5&lt;/b&gt;(c, λ, Cm) = 2*c*(1-λ) / ( c + (1-c)*Cm )" style="text;strokeColor=none;fillColor=none;align=left;verticalAlign=top;spacingLeft=4;spacingRight=4;overflow=hidden;rotatable=0;points=[[0,0.5],[1,0.5]];portConstraint=eastwest;whiteSpace=wrap;html=1;" parent="d-hZ3jwBHdceiBEyUTI2-7" vertex="1">
          <mxGeometry y="528" width="500" height="26" as="geometry" />
        </mxCell>
        <mxCell id="A-GJT8r7pYPnGmrL0-Lr-1" value="&lt;b style=&quot;border-color: var(--border-color);&quot;&gt;K6&lt;/b&gt;(c, λ, x) = ( x-1+2*c*(1-λ) ) / (2*c*(1-λ))" style="text;strokeColor=none;fillColor=none;align=left;verticalAlign=top;spacingLeft=4;spacingRight=4;overflow=hidden;rotatable=0;points=[[0,0.5],[1,0.5]];portConstraint=eastwest;whiteSpace=wrap;html=1;" parent="d-hZ3jwBHdceiBEyUTI2-7" vertex="1">
          <mxGeometry y="554" width="500" height="26" as="geometry" />
        </mxCell>
        <mxCell id="d-hZ3jwBHdceiBEyUTI2-23" value="&lt;b&gt;K2&#39;&lt;/b&gt;(c, λ) = 1&amp;nbsp;/ (2*c*λ)" style="text;strokeColor=none;fillColor=none;align=left;verticalAlign=top;spacingLeft=4;spacingRight=4;overflow=hidden;rotatable=0;points=[[0,0.5],[1,0.5]];portConstraint=eastwest;whiteSpace=wrap;html=1;" parent="d-hZ3jwBHdceiBEyUTI2-7" vertex="1">
          <mxGeometry y="580" width="500" height="26" as="geometry" />
        </mxCell>
        <mxCell id="oC8GrmnEJK2R8Zxkm2li-1" value="&lt;b style=&quot;border-color: var(--border-color);&quot;&gt;K3&#39;&lt;/b&gt;(c, λ, Cm) = Cm / (c + (1-c)*Cm)" style="text;strokeColor=none;fillColor=none;align=left;verticalAlign=top;spacingLeft=4;spacingRight=4;overflow=hidden;rotatable=0;points=[[0,0.5],[1,0.5]];portConstraint=eastwest;whiteSpace=wrap;html=1;" parent="d-hZ3jwBHdceiBEyUTI2-7" vertex="1">
          <mxGeometry y="606" width="500" height="26" as="geometry" />
        </mxCell>
        <mxCell id="oC8GrmnEJK2R8Zxkm2li-0" value="&lt;b style=&quot;border-color: var(--border-color);&quot;&gt;K6&#39;&lt;/b&gt;(c, λ) = 1 / (2*c*(1-λ))" style="text;strokeColor=none;fillColor=none;align=left;verticalAlign=top;spacingLeft=4;spacingRight=4;overflow=hidden;rotatable=0;points=[[0,0.5],[1,0.5]];portConstraint=eastwest;whiteSpace=wrap;html=1;" parent="d-hZ3jwBHdceiBEyUTI2-7" vertex="1">
          <mxGeometry y="632" width="500" height="26" as="geometry" />
        </mxCell>
        <mxCell id="d-hZ3jwBHdceiBEyUTI2-29" value="f(x), f&#39;(x), f&#39;&#39;(x), f&#39;&#39;&#39;(x)" style="text;strokeColor=none;fillColor=none;align=left;verticalAlign=top;spacingLeft=4;spacingRight=4;overflow=hidden;rotatable=0;points=[[0,0.5],[1,0.5]];portConstraint=eastwest;whiteSpace=wrap;html=1;" parent="d-hZ3jwBHdceiBEyUTI2-7" vertex="1">
          <mxGeometry y="658" width="500" height="26" as="geometry" />
        </mxCell>
        <mxCell id="d-hZ3jwBHdceiBEyUTI2-32" value="&lt;b&gt;f&lt;sub&gt;Symmetric&lt;/sub&gt;&lt;/b&gt;(x), &lt;b&gt;f&#39;&lt;sub style=&quot;border-color: var(--border-color);&quot;&gt;Symmetric&lt;/sub&gt;&lt;/b&gt;(x),&amp;nbsp;&lt;b&gt;f&#39;&#39;&lt;sub&gt;Symmetric&lt;/sub&gt;&lt;/b&gt;(x), &lt;b&gt;f&#39;&#39;&#39;&lt;sub style=&quot;border-color: var(--border-color);&quot;&gt;Symmetric&lt;/sub&gt;&lt;/b&gt;(x, xIndexInProfile)" style="text;strokeColor=none;fillColor=none;align=left;verticalAlign=top;spacingLeft=4;spacingRight=4;overflow=hidden;rotatable=0;points=[[0,0.5],[1,0.5]];portConstraint=eastwest;whiteSpace=wrap;html=1;" parent="d-hZ3jwBHdceiBEyUTI2-7" vertex="1">
          <mxGeometry y="684" width="500" height="26" as="geometry" />
        </mxCell>
        <mxCell id="d-hZ3jwBHdceiBEyUTI2-33" value="CamGeneralLaw.cs" style="swimlane;fontStyle=1;align=center;verticalAlign=top;childLayout=stackLayout;horizontal=1;startSize=26;horizontalStack=0;resizeParent=1;resizeParentMax=0;resizeLast=0;collapsible=1;marginBottom=0;whiteSpace=wrap;html=1;" parent="WIyWlLk6GJQsqaUBKTNV-1" vertex="1">
          <mxGeometry x="1749" y="-418" width="663" height="502" as="geometry" />
        </mxCell>
        <mxCell id="d-hZ3jwBHdceiBEyUTI2-37" value="X&lt;sub&gt;scale&lt;/sub&gt;, Y&lt;sub&gt;scale&lt;/sub&gt;, V&lt;sub&gt;scale&lt;/sub&gt;, A&lt;sub&gt;scale&lt;/sub&gt;, J&lt;sub&gt;scale&lt;br&gt;&lt;/sub&gt;" style="text;strokeColor=none;fillColor=none;align=left;verticalAlign=top;spacingLeft=4;spacingRight=4;overflow=hidden;rotatable=0;points=[[0,0.5],[1,0.5]];portConstraint=eastwest;whiteSpace=wrap;html=1;" parent="d-hZ3jwBHdceiBEyUTI2-33" vertex="1">
          <mxGeometry y="26" width="663" height="26" as="geometry" />
        </mxCell>
        <mxCell id="d-hZ3jwBHdceiBEyUTI2-34" value="m&lt;sub&gt;0&lt;/sub&gt;, m&lt;sub&gt;1&lt;/sub&gt;: gradient in point p&lt;sub&gt;0&lt;/sub&gt;(x&lt;sub&gt;0&lt;/sub&gt;|y&lt;sub&gt;0&lt;/sub&gt;), p&lt;sub&gt;1&lt;/sub&gt;(x&lt;sub&gt;1&lt;/sub&gt;|y&lt;sub&gt;1&lt;/sub&gt;)&lt;sub&gt;&lt;br&gt;&lt;/sub&gt;" style="text;strokeColor=none;fillColor=none;align=left;verticalAlign=top;spacingLeft=4;spacingRight=4;overflow=hidden;rotatable=0;points=[[0,0.5],[1,0.5]];portConstraint=eastwest;whiteSpace=wrap;html=1;" parent="d-hZ3jwBHdceiBEyUTI2-33" vertex="1">
          <mxGeometry y="52" width="663" height="26" as="geometry" />
        </mxCell>
        <mxCell id="d-hZ3jwBHdceiBEyUTI2-38" value="k&lt;sub&gt;0&lt;/sub&gt;, k&lt;sub&gt;1&lt;/sub&gt;: curvature in point p&lt;sub&gt;0&lt;/sub&gt;(x&lt;sub&gt;0&lt;/sub&gt;|y&lt;sub&gt;0&lt;/sub&gt;), p&lt;sub&gt;1&lt;/sub&gt;(x&lt;sub&gt;1&lt;/sub&gt;|y&lt;sub&gt;1&lt;/sub&gt;)&lt;sub&gt;&lt;br&gt;&lt;/sub&gt;" style="text;strokeColor=none;fillColor=none;align=left;verticalAlign=top;spacingLeft=4;spacingRight=4;overflow=hidden;rotatable=0;points=[[0,0.5],[1,0.5]];portConstraint=eastwest;whiteSpace=wrap;html=1;" parent="d-hZ3jwBHdceiBEyUTI2-33" vertex="1">
          <mxGeometry y="78" width="663" height="26" as="geometry" />
        </mxCell>
        <mxCell id="d-hZ3jwBHdceiBEyUTI2-35" value="" style="line;strokeWidth=1;fillColor=none;align=left;verticalAlign=middle;spacingTop=-1;spacingLeft=3;spacingRight=3;rotatable=0;labelPosition=right;points=[];portConstraint=eastwest;strokeColor=inherit;" parent="d-hZ3jwBHdceiBEyUTI2-33" vertex="1">
          <mxGeometry y="104" width="663" height="8" as="geometry" />
        </mxCell>
        <mxCell id="d-hZ3jwBHdceiBEyUTI2-36" value="&lt;b&gt;CalculateSegment&lt;/b&gt;(segment)" style="text;strokeColor=none;fillColor=none;align=left;verticalAlign=top;spacingLeft=4;spacingRight=4;overflow=hidden;rotatable=0;points=[[0,0.5],[1,0.5]];portConstraint=eastwest;whiteSpace=wrap;html=1;" parent="d-hZ3jwBHdceiBEyUTI2-33" vertex="1">
          <mxGeometry y="112" width="663" height="26" as="geometry" />
        </mxCell>
        <mxCell id="d-hZ3jwBHdceiBEyUTI2-40" value="&lt;b&gt;NormalizeInputData&lt;/b&gt;()" style="text;strokeColor=none;fillColor=none;align=left;verticalAlign=top;spacingLeft=4;spacingRight=4;overflow=hidden;rotatable=0;points=[[0,0.5],[1,0.5]];portConstraint=eastwest;whiteSpace=wrap;html=1;" parent="d-hZ3jwBHdceiBEyUTI2-33" vertex="1">
          <mxGeometry y="138" width="663" height="26" as="geometry" />
        </mxCell>
        <mxCell id="d-hZ3jwBHdceiBEyUTI2-41" value="&lt;b&gt;CalcDeltaX&lt;/b&gt;(): X&lt;sub&gt;scale&lt;/sub&gt; = camSegment.XEnd - camSegment.XStart" style="text;strokeColor=none;fillColor=none;align=left;verticalAlign=top;spacingLeft=4;spacingRight=4;overflow=hidden;rotatable=0;points=[[0,0.5],[1,0.5]];portConstraint=eastwest;whiteSpace=wrap;html=1;" parent="d-hZ3jwBHdceiBEyUTI2-33" vertex="1">
          <mxGeometry y="164" width="663" height="26" as="geometry" />
        </mxCell>
        <mxCell id="TG3gtnt5EF_iq5fIFMWk-0" value="&lt;b&gt;CalcDeltaY&lt;/b&gt;(): Y&lt;sub style=&quot;border-color: var(--border-color);&quot;&gt;scale&lt;/sub&gt;&amp;nbsp;= camSegment.YEnd - camSegment.YStart" style="text;strokeColor=none;fillColor=none;align=left;verticalAlign=top;spacingLeft=4;spacingRight=4;overflow=hidden;rotatable=0;points=[[0,0.5],[1,0.5]];portConstraint=eastwest;whiteSpace=wrap;html=1;" parent="d-hZ3jwBHdceiBEyUTI2-33" vertex="1">
          <mxGeometry y="190" width="663" height="26" as="geometry" />
        </mxCell>
        <mxCell id="d-hZ3jwBHdceiBEyUTI2-42" value="&lt;b&gt;CalcVelocityScaling&lt;/b&gt;(): V&lt;sub style=&quot;border-color: var(--border-color);&quot;&gt;scale&lt;/sub&gt;&amp;nbsp;=&amp;nbsp; Y&lt;sub style=&quot;border-color: var(--border-color);&quot;&gt;scale&lt;/sub&gt;&amp;nbsp;/ X&lt;sub style=&quot;border-color: var(--border-color);&quot;&gt;scale&lt;/sub&gt;" style="text;strokeColor=none;fillColor=none;align=left;verticalAlign=top;spacingLeft=4;spacingRight=4;overflow=hidden;rotatable=0;points=[[0,0.5],[1,0.5]];portConstraint=eastwest;whiteSpace=wrap;html=1;" parent="d-hZ3jwBHdceiBEyUTI2-33" vertex="1">
          <mxGeometry y="216" width="663" height="26" as="geometry" />
        </mxCell>
        <mxCell id="TG3gtnt5EF_iq5fIFMWk-2" value="&lt;b style=&quot;border-color: var(--border-color);&quot;&gt;CalcAccelerationScaling&lt;/b&gt;(): A&lt;sub&gt;Scale&lt;/sub&gt; =&amp;nbsp; Y&lt;sub style=&quot;border-color: var(--border-color);&quot;&gt;scale&lt;/sub&gt;&amp;nbsp;/ X&lt;sub style=&quot;border-color: var(--border-color);&quot;&gt;scale&lt;/sub&gt;&amp;nbsp;/ X&lt;sub style=&quot;border-color: var(--border-color);&quot;&gt;scale&lt;/sub&gt;" style="text;strokeColor=none;fillColor=none;align=left;verticalAlign=top;spacingLeft=4;spacingRight=4;overflow=hidden;rotatable=0;points=[[0,0.5],[1,0.5]];portConstraint=eastwest;whiteSpace=wrap;html=1;" parent="d-hZ3jwBHdceiBEyUTI2-33" vertex="1">
          <mxGeometry y="242" width="663" height="26" as="geometry" />
        </mxCell>
        <mxCell id="TG3gtnt5EF_iq5fIFMWk-1" value="&lt;b&gt;CalcJerkScaling&lt;/b&gt;(): A&lt;sub style=&quot;border-color: var(--border-color);&quot;&gt;Scale&lt;/sub&gt;&amp;nbsp;=&amp;nbsp; Y&lt;sub style=&quot;border-color: var(--border-color);&quot;&gt;scale&lt;/sub&gt;&amp;nbsp;/ X&lt;sub style=&quot;border-color: var(--border-color);&quot;&gt;scale&lt;/sub&gt;&amp;nbsp;/ X&lt;sub style=&quot;border-color: var(--border-color);&quot;&gt;scale&lt;/sub&gt;&amp;nbsp;/ X&lt;sub style=&quot;border-color: var(--border-color);&quot;&gt;scale&lt;/sub&gt;" style="text;strokeColor=none;fillColor=none;align=left;verticalAlign=top;spacingLeft=4;spacingRight=4;overflow=hidden;rotatable=0;points=[[0,0.5],[1,0.5]];portConstraint=eastwest;whiteSpace=wrap;html=1;" parent="d-hZ3jwBHdceiBEyUTI2-33" vertex="1">
          <mxGeometry y="268" width="663" height="26" as="geometry" />
        </mxCell>
        <mxCell id="d-hZ3jwBHdceiBEyUTI2-43" value="&lt;b&gt;CalcGradientStartingPoint&lt;/b&gt;(): m&lt;sub&gt;0&lt;/sub&gt; = |camSegment.VStart / V&lt;sub&gt;scale&lt;/sub&gt;|" style="text;strokeColor=none;fillColor=none;align=left;verticalAlign=top;spacingLeft=4;spacingRight=4;overflow=hidden;rotatable=0;points=[[0,0.5],[1,0.5]];portConstraint=eastwest;whiteSpace=wrap;html=1;" parent="d-hZ3jwBHdceiBEyUTI2-33" vertex="1">
          <mxGeometry y="294" width="663" height="26" as="geometry" />
        </mxCell>
        <mxCell id="TG3gtnt5EF_iq5fIFMWk-4" value="&lt;b&gt;CalcGradientEndPoint&lt;/b&gt;(): m&lt;sub style=&quot;border-color: var(--border-color);&quot;&gt;1&lt;/sub&gt;&amp;nbsp;= |camSegment.VEnd / V&lt;sub style=&quot;border-color: var(--border-color);&quot;&gt;scale&lt;/sub&gt;|" style="text;strokeColor=none;fillColor=none;align=left;verticalAlign=top;spacingLeft=4;spacingRight=4;overflow=hidden;rotatable=0;points=[[0,0.5],[1,0.5]];portConstraint=eastwest;whiteSpace=wrap;html=1;" parent="d-hZ3jwBHdceiBEyUTI2-33" vertex="1">
          <mxGeometry y="320" width="663" height="26" as="geometry" />
        </mxCell>
        <mxCell id="d-hZ3jwBHdceiBEyUTI2-46" value="&lt;b&gt;CalcCurvatureStartingPoint&lt;/b&gt;(): k&lt;sub style=&quot;border-color: var(--border-color);&quot;&gt;0&lt;/sub&gt;&amp;nbsp;= |camSegment.AStart / A&lt;sub style=&quot;border-color: var(--border-color);&quot;&gt;scale&lt;/sub&gt;|" style="text;strokeColor=none;fillColor=none;align=left;verticalAlign=top;spacingLeft=4;spacingRight=4;overflow=hidden;rotatable=0;points=[[0,0.5],[1,0.5]];portConstraint=eastwest;whiteSpace=wrap;html=1;" parent="d-hZ3jwBHdceiBEyUTI2-33" vertex="1">
          <mxGeometry y="346" width="663" height="26" as="geometry" />
        </mxCell>
        <mxCell id="TG3gtnt5EF_iq5fIFMWk-5" value="&lt;b&gt;CalcCurvatureStartingPoint&lt;/b&gt;(): k&lt;sub style=&quot;border-color: var(--border-color);&quot;&gt;1&lt;/sub&gt;&amp;nbsp;= |camSegment.AEnd / A&lt;sub style=&quot;border-color: var(--border-color);&quot;&gt;scale&lt;/sub&gt;|" style="text;strokeColor=none;fillColor=none;align=left;verticalAlign=top;spacingLeft=4;spacingRight=4;overflow=hidden;rotatable=0;points=[[0,0.5],[1,0.5]];portConstraint=eastwest;whiteSpace=wrap;html=1;" parent="d-hZ3jwBHdceiBEyUTI2-33" vertex="1">
          <mxGeometry y="372" width="663" height="26" as="geometry" />
        </mxCell>
        <mxCell id="d-hZ3jwBHdceiBEyUTI2-44" value="&lt;b&gt;UnSymFunction&lt;/b&gt;(): x[i] = (camSegment.X[i] - XStart) / X&lt;sub&gt;scale&lt;/sub&gt;, camSegment.Y[i] = camSegment.YStart + Y&lt;sub&gt;scale&lt;/sub&gt; * f(x[i])" style="text;strokeColor=none;fillColor=none;align=left;verticalAlign=top;spacingLeft=4;spacingRight=4;overflow=hidden;rotatable=0;points=[[0,0.5],[1,0.5]];portConstraint=eastwest;whiteSpace=wrap;html=1;" parent="d-hZ3jwBHdceiBEyUTI2-33" vertex="1">
          <mxGeometry y="398" width="663" height="26" as="geometry" />
        </mxCell>
        <mxCell id="TG3gtnt5EF_iq5fIFMWk-7" value="&lt;b&gt;UnsymFunction&#39;&lt;/b&gt;(): x[i] = (camSegment.X[i] - XStart) / X&lt;sub style=&quot;border-color: var(--border-color);&quot;&gt;scale&lt;/sub&gt;, camSegment.V[i] = V&lt;sub style=&quot;border-color: var(--border-color);&quot;&gt;scale&lt;/sub&gt;&amp;nbsp;* f&#39;(x[i])" style="text;strokeColor=none;fillColor=none;align=left;verticalAlign=top;spacingLeft=4;spacingRight=4;overflow=hidden;rotatable=0;points=[[0,0.5],[1,0.5]];portConstraint=eastwest;whiteSpace=wrap;html=1;" parent="d-hZ3jwBHdceiBEyUTI2-33" vertex="1">
          <mxGeometry y="424" width="663" height="26" as="geometry" />
        </mxCell>
        <mxCell id="TG3gtnt5EF_iq5fIFMWk-8" value="&lt;b&gt;UnsymFunction&#39;&#39;&lt;/b&gt;(): x[i] = (camSegment.X[i] - XStart) / X&lt;sub style=&quot;border-color: var(--border-color);&quot;&gt;scale&lt;/sub&gt;, camSegment.A[i] = A&lt;sub style=&quot;border-color: var(--border-color);&quot;&gt;scale&lt;/sub&gt;&amp;nbsp;* f&#39;&#39;(x[i])" style="text;strokeColor=none;fillColor=none;align=left;verticalAlign=top;spacingLeft=4;spacingRight=4;overflow=hidden;rotatable=0;points=[[0,0.5],[1,0.5]];portConstraint=eastwest;whiteSpace=wrap;html=1;" parent="d-hZ3jwBHdceiBEyUTI2-33" vertex="1">
          <mxGeometry y="450" width="663" height="26" as="geometry" />
        </mxCell>
        <mxCell id="TG3gtnt5EF_iq5fIFMWk-6" value="&lt;b&gt;UnsymFunction&#39;&#39;&#39;&lt;/b&gt;(): x[i] = (camSegment.X[i] - XStart) / X&lt;sub style=&quot;border-color: var(--border-color);&quot;&gt;scale&lt;/sub&gt;, camSegment.J[i] = J&lt;sub style=&quot;border-color: var(--border-color);&quot;&gt;scale&lt;/sub&gt;&amp;nbsp;* f&#39;&#39;&#39;(x[i])" style="text;strokeColor=none;fillColor=none;align=left;verticalAlign=top;spacingLeft=4;spacingRight=4;overflow=hidden;rotatable=0;points=[[0,0.5],[1,0.5]];portConstraint=eastwest;whiteSpace=wrap;html=1;" parent="d-hZ3jwBHdceiBEyUTI2-33" vertex="1">
          <mxGeometry y="476" width="663" height="26" as="geometry" />
        </mxCell>
        <mxCell id="d-hZ3jwBHdceiBEyUTI2-59" value="GeneralLaw.cs" style="swimlane;fontStyle=1;align=center;verticalAlign=top;childLayout=stackLayout;horizontal=1;startSize=26;horizontalStack=0;resizeParent=1;resizeParentMax=0;resizeLast=0;collapsible=1;marginBottom=0;whiteSpace=wrap;html=1;" parent="WIyWlLk6GJQsqaUBKTNV-1" vertex="1">
          <mxGeometry x="2439" y="-208" width="500" height="268" as="geometry" />
        </mxCell>
        <mxCell id="d-hZ3jwBHdceiBEyUTI2-60" value="segment" style="text;strokeColor=none;fillColor=none;align=left;verticalAlign=top;spacingLeft=4;spacingRight=4;overflow=hidden;rotatable=0;points=[[0,0.5],[1,0.5]];portConstraint=eastwest;whiteSpace=wrap;html=1;" parent="d-hZ3jwBHdceiBEyUTI2-59" vertex="1">
          <mxGeometry y="26" width="500" height="26" as="geometry" />
        </mxCell>
        <mxCell id="d-hZ3jwBHdceiBEyUTI2-61" value="m&lt;sub&gt;0&lt;/sub&gt;, m&lt;sub&gt;1&lt;/sub&gt;: gradient in point p&lt;sub&gt;0&lt;/sub&gt;(x&lt;sub&gt;0&lt;/sub&gt;|y&lt;sub&gt;0&lt;/sub&gt;), p&lt;sub&gt;1&lt;/sub&gt;(x&lt;sub&gt;1&lt;/sub&gt;|y&lt;sub&gt;1&lt;/sub&gt;)&lt;sub&gt;&lt;br&gt;&lt;/sub&gt;" style="text;strokeColor=none;fillColor=none;align=left;verticalAlign=top;spacingLeft=4;spacingRight=4;overflow=hidden;rotatable=0;points=[[0,0.5],[1,0.5]];portConstraint=eastwest;whiteSpace=wrap;html=1;" parent="d-hZ3jwBHdceiBEyUTI2-59" vertex="1">
          <mxGeometry y="52" width="500" height="26" as="geometry" />
        </mxCell>
        <mxCell id="d-hZ3jwBHdceiBEyUTI2-62" value="k&lt;sub&gt;0&lt;/sub&gt;, k&lt;sub&gt;1&lt;/sub&gt;: curvature in point p&lt;sub&gt;0&lt;/sub&gt;(x&lt;sub&gt;0&lt;/sub&gt;|y&lt;sub&gt;0&lt;/sub&gt;), p&lt;sub&gt;1&lt;/sub&gt;(x&lt;sub&gt;1&lt;/sub&gt;|y&lt;sub&gt;1&lt;/sub&gt;)&lt;sub&gt;&lt;br&gt;&lt;/sub&gt;" style="text;strokeColor=none;fillColor=none;align=left;verticalAlign=top;spacingLeft=4;spacingRight=4;overflow=hidden;rotatable=0;points=[[0,0.5],[1,0.5]];portConstraint=eastwest;whiteSpace=wrap;html=1;" parent="d-hZ3jwBHdceiBEyUTI2-59" vertex="1">
          <mxGeometry y="78" width="500" height="26" as="geometry" />
        </mxCell>
        <mxCell id="d-hZ3jwBHdceiBEyUTI2-63" value="" style="line;strokeWidth=1;fillColor=none;align=left;verticalAlign=middle;spacingTop=-1;spacingLeft=3;spacingRight=3;rotatable=0;labelPosition=right;points=[];portConstraint=eastwest;strokeColor=inherit;" parent="d-hZ3jwBHdceiBEyUTI2-59" vertex="1">
          <mxGeometry y="104" width="500" height="8" as="geometry" />
        </mxCell>
        <mxCell id="d-hZ3jwBHdceiBEyUTI2-64" value="&lt;b&gt;CalculateSegment&lt;/b&gt;(segment)" style="text;strokeColor=none;fillColor=none;align=left;verticalAlign=top;spacingLeft=4;spacingRight=4;overflow=hidden;rotatable=0;points=[[0,0.5],[1,0.5]];portConstraint=eastwest;whiteSpace=wrap;html=1;" parent="d-hZ3jwBHdceiBEyUTI2-59" vertex="1">
          <mxGeometry y="112" width="500" height="26" as="geometry" />
        </mxCell>
        <mxCell id="d-hZ3jwBHdceiBEyUTI2-65" value="&lt;b&gt;NormalizeInputData&lt;/b&gt;()" style="text;strokeColor=none;fillColor=none;align=left;verticalAlign=top;spacingLeft=4;spacingRight=4;overflow=hidden;rotatable=0;points=[[0,0.5],[1,0.5]];portConstraint=eastwest;whiteSpace=wrap;html=1;" parent="d-hZ3jwBHdceiBEyUTI2-59" vertex="1">
          <mxGeometry y="138" width="500" height="26" as="geometry" />
        </mxCell>
        <mxCell id="d-hZ3jwBHdceiBEyUTI2-71" value="&lt;b&gt;PreCalculations&lt;/b&gt;(), &lt;b&gt;NormalizedCalculations&lt;/b&gt;()" style="text;strokeColor=none;fillColor=none;align=left;verticalAlign=top;spacingLeft=4;spacingRight=4;overflow=hidden;rotatable=0;points=[[0,0.5],[1,0.5]];portConstraint=eastwest;whiteSpace=wrap;html=1;" parent="d-hZ3jwBHdceiBEyUTI2-59" vertex="1">
          <mxGeometry y="164" width="500" height="26" as="geometry" />
        </mxCell>
        <mxCell id="d-hZ3jwBHdceiBEyUTI2-72" value="&lt;b&gt;f&lt;/b&gt;(x), &lt;b&gt;f&#39;&lt;/b&gt;(x), &lt;b&gt;f&#39;&#39;&lt;/b&gt;(x), &lt;b&gt;f&#39;&#39;&#39;&lt;/b&gt;(x, xIndexInProfile)" style="text;strokeColor=none;fillColor=none;align=left;verticalAlign=top;spacingLeft=4;spacingRight=4;overflow=hidden;rotatable=0;points=[[0,0.5],[1,0.5]];portConstraint=eastwest;whiteSpace=wrap;html=1;" parent="d-hZ3jwBHdceiBEyUTI2-59" vertex="1">
          <mxGeometry y="190" width="500" height="26" as="geometry" />
        </mxCell>
        <mxCell id="d-hZ3jwBHdceiBEyUTI2-67" value="&lt;b&gt;ScaleUp&lt;/b&gt;(): {UnsymFunction(),&lt;span style=&quot;border-color: var(--border-color);&quot;&gt;UnsymFunction&#39;&lt;/span&gt;(),&amp;nbsp;&lt;span style=&quot;border-color: var(--border-color);&quot;&gt;UnsymFunction&#39;&#39;&lt;/span&gt;(),&amp;nbsp;&lt;span style=&quot;border-color: var(--border-color);&quot;&gt;UnsymFunction&#39;&#39;&#39;&lt;/span&gt;()}" style="text;strokeColor=none;fillColor=none;align=left;verticalAlign=top;spacingLeft=4;spacingRight=4;overflow=hidden;rotatable=0;points=[[0,0.5],[1,0.5]];portConstraint=eastwest;whiteSpace=wrap;html=1;" parent="d-hZ3jwBHdceiBEyUTI2-59" vertex="1">
          <mxGeometry y="216" width="500" height="26" as="geometry" />
        </mxCell>
        <mxCell id="d-hZ3jwBHdceiBEyUTI2-70" value="&lt;b&gt;UnSymFunction&lt;/b&gt;(), &lt;b&gt;UnsymFunction&#39;&lt;/b&gt;(), &lt;b&gt;UnsymFunction&#39;&#39;&lt;/b&gt;(), &lt;b&gt;UnsymFunction&#39;&#39;&#39;&lt;/b&gt;()" style="text;strokeColor=none;fillColor=none;align=left;verticalAlign=top;spacingLeft=4;spacingRight=4;overflow=hidden;rotatable=0;points=[[0,0.5],[1,0.5]];portConstraint=eastwest;whiteSpace=wrap;html=1;" parent="d-hZ3jwBHdceiBEyUTI2-59" vertex="1">
          <mxGeometry y="242" width="500" height="26" as="geometry" />
        </mxCell>
        <mxCell id="d-hZ3jwBHdceiBEyUTI2-103" value="" style="curved=1;endArrow=classic;html=1;rounded=0;entryX=0;entryY=0.5;entryDx=0;entryDy=0;" parent="d-hZ3jwBHdceiBEyUTI2-59" source="d-hZ3jwBHdceiBEyUTI2-70" target="d-hZ3jwBHdceiBEyUTI2-67" edge="1">
          <mxGeometry width="50" height="50" relative="1" as="geometry">
            <mxPoint x="510" y="256" as="sourcePoint" />
            <mxPoint x="560" y="206" as="targetPoint" />
            <Array as="points">
              <mxPoint x="-81" y="320" />
            </Array>
          </mxGeometry>
        </mxCell>
        <mxCell id="d-hZ3jwBHdceiBEyUTI2-74" value="GeneralPoly5.cs" style="swimlane;fontStyle=1;align=center;verticalAlign=top;childLayout=stackLayout;horizontal=1;startSize=26;horizontalStack=0;resizeParent=1;resizeParentMax=0;resizeLast=0;collapsible=1;marginBottom=0;whiteSpace=wrap;html=1;" parent="WIyWlLk6GJQsqaUBKTNV-1" vertex="1">
          <mxGeometry x="2442" y="157" width="500" height="171" as="geometry" />
        </mxCell>
        <mxCell id="d-hZ3jwBHdceiBEyUTI2-75" value="&lt;b&gt;a&lt;/b&gt;: polynomial coefficients" style="text;strokeColor=none;fillColor=none;align=left;verticalAlign=top;spacingLeft=4;spacingRight=4;overflow=hidden;rotatable=0;points=[[0,0.5],[1,0.5]];portConstraint=eastwest;whiteSpace=wrap;html=1;" parent="d-hZ3jwBHdceiBEyUTI2-74" vertex="1">
          <mxGeometry y="26" width="500" height="26" as="geometry" />
        </mxCell>
        <mxCell id="d-hZ3jwBHdceiBEyUTI2-78" value="" style="line;strokeWidth=1;fillColor=none;align=left;verticalAlign=middle;spacingTop=-1;spacingLeft=3;spacingRight=3;rotatable=0;labelPosition=right;points=[];portConstraint=eastwest;strokeColor=inherit;" parent="d-hZ3jwBHdceiBEyUTI2-74" vertex="1">
          <mxGeometry y="52" width="500" height="8" as="geometry" />
        </mxCell>
        <mxCell id="d-hZ3jwBHdceiBEyUTI2-79" value="&lt;b&gt;CalculateCoefficients&lt;/b&gt;(): coefficients decided by 6 given conditons ~ start&amp;amp;end p, v, a&lt;br&gt;&#x9;&lt;span style=&quot;&quot;&gt;&lt;span style=&quot;&quot;&gt;&amp;nbsp;&amp;nbsp;&amp;nbsp;&amp;nbsp;&lt;/span&gt;&lt;/span&gt;a&lt;sub&gt;0&lt;/sub&gt;=0, a&lt;sub&gt;1&lt;/sub&gt;=m&lt;sub&gt;0&lt;/sub&gt;, a&lt;sub&gt;2&lt;/sub&gt;=0.5k&lt;sub&gt;0&lt;/sub&gt;, a&lt;sub&gt;3&lt;/sub&gt;=10-(6m&lt;sub&gt;0&lt;/sub&gt;+4m&lt;sub&gt;1&lt;/sub&gt;)+(0.5k&lt;sub&gt;1&lt;/sub&gt;-1.5k&lt;sub&gt;0&lt;/sub&gt;)&lt;br&gt;&lt;span style=&quot;&quot;&gt;&lt;span style=&quot;&quot;&gt;&amp;nbsp;&amp;nbsp;&amp;nbsp;&amp;nbsp;&lt;/span&gt;&lt;/span&gt;a&lt;sub style=&quot;border-color: var(--border-color);&quot;&gt;4&lt;/sub&gt;=-15+(8m&lt;sub style=&quot;border-color: var(--border-color);&quot;&gt;0&lt;/sub&gt;+7m&lt;sub style=&quot;border-color: var(--border-color);&quot;&gt;1&lt;/sub&gt;)+(1.5k&lt;sub style=&quot;border-color: var(--border-color);&quot;&gt;0&lt;/sub&gt;-k&lt;sub style=&quot;border-color: var(--border-color);&quot;&gt;1&lt;/sub&gt;), a&lt;sub style=&quot;border-color: var(--border-color);&quot;&gt;3&lt;/sub&gt;=6-3(m&lt;sub style=&quot;border-color: var(--border-color);&quot;&gt;0&lt;/sub&gt;+m&lt;sub style=&quot;border-color: var(--border-color);&quot;&gt;1&lt;/sub&gt;)+0.5(k&lt;sub style=&quot;border-color: var(--border-color);&quot;&gt;1&lt;/sub&gt;-k&lt;sub style=&quot;border-color: var(--border-color);&quot;&gt;0&lt;/sub&gt;)" style="text;strokeColor=none;fillColor=none;align=left;verticalAlign=top;spacingLeft=4;spacingRight=4;overflow=hidden;rotatable=0;points=[[0,0.5],[1,0.5]];portConstraint=eastwest;whiteSpace=wrap;html=1;" parent="d-hZ3jwBHdceiBEyUTI2-74" vertex="1">
          <mxGeometry y="60" width="500" height="59" as="geometry" />
        </mxCell>
        <mxCell id="d-hZ3jwBHdceiBEyUTI2-82" value="&lt;b&gt;f&lt;/b&gt;(x), &lt;b&gt;f&#39;&lt;/b&gt;(x), &lt;b&gt;f&#39;&#39;&lt;/b&gt;(x), &lt;b&gt;f&#39;&#39;&#39;&lt;/b&gt;(x, xIndexInProfile)" style="text;strokeColor=none;fillColor=none;align=left;verticalAlign=top;spacingLeft=4;spacingRight=4;overflow=hidden;rotatable=0;points=[[0,0.5],[1,0.5]];portConstraint=eastwest;whiteSpace=wrap;html=1;" parent="d-hZ3jwBHdceiBEyUTI2-74" vertex="1">
          <mxGeometry y="119" width="500" height="26" as="geometry" />
        </mxCell>
        <mxCell id="d-hZ3jwBHdceiBEyUTI2-85" value="&lt;b&gt;NormalizedCalculations&lt;/b&gt;() →&amp;nbsp;&lt;b style=&quot;border-color: var(--border-color);&quot;&gt;CalculateCoefficients&lt;/b&gt;()" style="text;strokeColor=none;fillColor=none;align=left;verticalAlign=top;spacingLeft=4;spacingRight=4;overflow=hidden;rotatable=0;points=[[0,0.5],[1,0.5]];portConstraint=eastwest;whiteSpace=wrap;html=1;" parent="d-hZ3jwBHdceiBEyUTI2-74" vertex="1">
          <mxGeometry y="145" width="500" height="26" as="geometry" />
        </mxCell>
        <mxCell id="d-hZ3jwBHdceiBEyUTI2-86" value="Poly5.cs" style="swimlane;fontStyle=1;align=center;verticalAlign=top;childLayout=stackLayout;horizontal=1;startSize=26;horizontalStack=0;resizeParent=1;resizeParentMax=0;resizeLast=0;collapsible=1;marginBottom=0;whiteSpace=wrap;html=1;" parent="WIyWlLk6GJQsqaUBKTNV-1" vertex="1">
          <mxGeometry x="2442" y="344" width="500" height="216" as="geometry" />
        </mxCell>
        <mxCell id="d-hZ3jwBHdceiBEyUTI2-92" value="&lt;b style=&quot;border-color: var(--border-color);&quot;&gt;base.Cm&lt;/b&gt;: Gradient Characteristic Value, 1.875" style="text;strokeColor=none;fillColor=none;align=left;verticalAlign=top;spacingLeft=4;spacingRight=4;overflow=hidden;rotatable=0;points=[[0,0.5],[1,0.5]];portConstraint=eastwest;whiteSpace=wrap;html=1;" parent="d-hZ3jwBHdceiBEyUTI2-86" vertex="1">
          <mxGeometry y="26" width="500" height="26" as="geometry" />
        </mxCell>
        <mxCell id="d-hZ3jwBHdceiBEyUTI2-93" value="&lt;b&gt;base.Ck&lt;/b&gt;: Curvature Characteristic Value, 10/3*3&lt;sup&gt;0.5&lt;/sup&gt;" style="text;strokeColor=none;fillColor=none;align=left;verticalAlign=top;spacingLeft=4;spacingRight=4;overflow=hidden;rotatable=0;points=[[0,0.5],[1,0.5]];portConstraint=eastwest;whiteSpace=wrap;html=1;" parent="d-hZ3jwBHdceiBEyUTI2-86" vertex="1">
          <mxGeometry y="52" width="500" height="26" as="geometry" />
        </mxCell>
        <mxCell id="d-hZ3jwBHdceiBEyUTI2-88" value="" style="line;strokeWidth=1;fillColor=none;align=left;verticalAlign=middle;spacingTop=-1;spacingLeft=3;spacingRight=3;rotatable=0;labelPosition=right;points=[];portConstraint=eastwest;strokeColor=inherit;" parent="d-hZ3jwBHdceiBEyUTI2-86" vertex="1">
          <mxGeometry y="78" width="500" height="8" as="geometry" />
        </mxCell>
        <mxCell id="d-hZ3jwBHdceiBEyUTI2-89" value="&lt;b&gt;CalculateCoefficients&lt;/b&gt;()" style="text;strokeColor=none;fillColor=none;align=left;verticalAlign=top;spacingLeft=4;spacingRight=4;overflow=hidden;rotatable=0;points=[[0,0.5],[1,0.5]];portConstraint=eastwest;whiteSpace=wrap;html=1;" parent="d-hZ3jwBHdceiBEyUTI2-86" vertex="1">
          <mxGeometry y="86" width="500" height="26" as="geometry" />
        </mxCell>
        <mxCell id="d-hZ3jwBHdceiBEyUTI2-94" value="&lt;b&gt;f&lt;sub&gt;Symmetric&lt;/sub&gt;&lt;/b&gt;(x) = 10x&lt;sup&gt;3&lt;/sup&gt;-15x&lt;sup&gt;4&lt;/sup&gt;+6x&lt;sup&gt;5&lt;/sup&gt;" style="text;strokeColor=none;fillColor=none;align=left;verticalAlign=top;spacingLeft=4;spacingRight=4;overflow=hidden;rotatable=0;points=[[0,0.5],[1,0.5]];portConstraint=eastwest;whiteSpace=wrap;html=1;" parent="d-hZ3jwBHdceiBEyUTI2-86" vertex="1">
          <mxGeometry y="112" width="500" height="26" as="geometry" />
        </mxCell>
        <mxCell id="d-hZ3jwBHdceiBEyUTI2-96" value="&lt;b style=&quot;border-color: var(--border-color);&quot;&gt;f&#39;&lt;sub style=&quot;border-color: var(--border-color);&quot;&gt;Symmetric&lt;/sub&gt;&lt;/b&gt;&lt;span style=&quot;border-color: var(--border-color);&quot;&gt;(x)&lt;/span&gt;&amp;nbsp;= 30x&lt;sup&gt;2&lt;/sup&gt;-60x&lt;sup&gt;3&lt;/sup&gt;+30x&lt;sup&gt;4&lt;/sup&gt;" style="text;strokeColor=none;fillColor=none;align=left;verticalAlign=top;spacingLeft=4;spacingRight=4;overflow=hidden;rotatable=0;points=[[0,0.5],[1,0.5]];portConstraint=eastwest;whiteSpace=wrap;html=1;" parent="d-hZ3jwBHdceiBEyUTI2-86" vertex="1">
          <mxGeometry y="138" width="500" height="26" as="geometry" />
        </mxCell>
        <mxCell id="d-hZ3jwBHdceiBEyUTI2-97" value="&lt;b style=&quot;border-color: var(--border-color);&quot;&gt;f&#39;&#39;&lt;sub style=&quot;border-color: var(--border-color);&quot;&gt;Symmetric&lt;/sub&gt;&lt;/b&gt;&lt;span style=&quot;border-color: var(--border-color);&quot;&gt;(x)&lt;/span&gt;&amp;nbsp;= 60x-180x&lt;sup&gt;2&lt;/sup&gt;+120x&lt;sup&gt;3&lt;/sup&gt;" style="text;strokeColor=none;fillColor=none;align=left;verticalAlign=top;spacingLeft=4;spacingRight=4;overflow=hidden;rotatable=0;points=[[0,0.5],[1,0.5]];portConstraint=eastwest;whiteSpace=wrap;html=1;" parent="d-hZ3jwBHdceiBEyUTI2-86" vertex="1">
          <mxGeometry y="164" width="500" height="26" as="geometry" />
        </mxCell>
        <mxCell id="d-hZ3jwBHdceiBEyUTI2-98" value="&lt;b style=&quot;border-color: var(--border-color);&quot;&gt;f&#39;&#39;&#39;&lt;sub style=&quot;border-color: var(--border-color);&quot;&gt;Symmetric&lt;/sub&gt;&lt;/b&gt;(x, xIndexInProfile) = 60-360x+360x&lt;sup&gt;2&lt;/sup&gt;" style="text;strokeColor=none;fillColor=none;align=left;verticalAlign=top;spacingLeft=4;spacingRight=4;overflow=hidden;rotatable=0;points=[[0,0.5],[1,0.5]];portConstraint=eastwest;whiteSpace=wrap;html=1;" parent="d-hZ3jwBHdceiBEyUTI2-86" vertex="1">
          <mxGeometry y="190" width="500" height="26" as="geometry" />
        </mxCell>
        <mxCell id="3hRopzGacqo8IZ4BAXcn-0" value="SmartInfeed_Gym_Env" style="swimlane;fontStyle=1;align=center;verticalAlign=top;childLayout=stackLayout;horizontal=1;startSize=26;horizontalStack=0;resizeParent=1;resizeLast=0;collapsible=1;marginBottom=0;rounded=0;shadow=0;strokeWidth=1;" parent="WIyWlLk6GJQsqaUBKTNV-1" vertex="1">
          <mxGeometry x="-927" y="20" width="340" height="528" as="geometry">
            <mxRectangle x="130" y="380" width="160" height="26" as="alternateBounds" />
          </mxGeometry>
        </mxCell>
        <mxCell id="3hRopzGacqo8IZ4BAXcn-1" value="truncated, terminated, ask_for_action" style="text;align=left;verticalAlign=top;spacingLeft=4;spacingRight=4;overflow=hidden;rotatable=0;points=[[0,0.5],[1,0.5]];portConstraint=eastwest;" parent="3hRopzGacqo8IZ4BAXcn-0" vertex="1">
          <mxGeometry y="26" width="340" height="26" as="geometry" />
        </mxCell>
        <mxCell id="3hRopzGacqo8IZ4BAXcn-4" value="max_error, min_error, summer_error" style="text;align=left;verticalAlign=top;spacingLeft=4;spacingRight=4;overflow=hidden;rotatable=0;points=[[0,0.5],[1,0.5]];portConstraint=eastwest;" parent="3hRopzGacqo8IZ4BAXcn-0" vertex="1">
          <mxGeometry y="52" width="340" height="26" as="geometry" />
        </mxCell>
        <mxCell id="3hRopzGacqo8IZ4BAXcn-2" value="belts, products, virtual_fingers, belt_velocity:[]" style="text;align=left;verticalAlign=top;spacingLeft=4;spacingRight=4;overflow=hidden;rotatable=0;points=[[0,0.5],[1,0.5]];portConstraint=eastwest;fontStyle=0" parent="3hRopzGacqo8IZ4BAXcn-0" vertex="1">
          <mxGeometry y="78" width="340" height="26" as="geometry" />
        </mxCell>
        <mxCell id="3hRopzGacqo8IZ4BAXcn-3" value="current_step, " style="text;align=left;verticalAlign=top;spacingLeft=4;spacingRight=4;overflow=hidden;rotatable=0;points=[[0,0.5],[1,0.5]];portConstraint=eastwest;rounded=0;shadow=0;html=0;" parent="3hRopzGacqo8IZ4BAXcn-0" vertex="1">
          <mxGeometry y="104" width="340" height="26" as="geometry" />
        </mxCell>
        <mxCell id="3hRopzGacqo8IZ4BAXcn-5" value="counter: within_finger, collision, finger_without_product" style="text;align=left;verticalAlign=top;spacingLeft=4;spacingRight=4;overflow=hidden;rotatable=0;points=[[0,0.5],[1,0.5]];portConstraint=eastwest;rounded=0;shadow=0;html=0;" parent="3hRopzGacqo8IZ4BAXcn-0" vertex="1">
          <mxGeometry y="130" width="340" height="26" as="geometry" />
        </mxCell>
        <mxCell id="3hRopzGacqo8IZ4BAXcn-6" value="product_length, generate_rate, position_variance, max_acc" style="text;align=left;verticalAlign=top;spacingLeft=4;spacingRight=4;overflow=hidden;rotatable=0;points=[[0,0.5],[1,0.5]];portConstraint=eastwest;rounded=0;shadow=0;html=0;" parent="3hRopzGacqo8IZ4BAXcn-0" vertex="1">
          <mxGeometry y="156" width="340" height="26" as="geometry" />
        </mxCell>
        <mxCell id="3hRopzGacqo8IZ4BAXcn-7" value="observation_space, action_space" style="text;align=left;verticalAlign=top;spacingLeft=4;spacingRight=4;overflow=hidden;rotatable=0;points=[[0,0.5],[1,0.5]];portConstraint=eastwest;rounded=0;shadow=0;html=0;" parent="3hRopzGacqo8IZ4BAXcn-0" vertex="1">
          <mxGeometry y="182" width="340" height="26" as="geometry" />
        </mxCell>
        <mxCell id="3hRopzGacqo8IZ4BAXcn-8" value="" style="line;html=1;strokeWidth=1;align=left;verticalAlign=middle;spacingTop=-1;spacingLeft=3;spacingRight=3;rotatable=0;labelPosition=right;points=[];portConstraint=eastwest;" parent="3hRopzGacqo8IZ4BAXcn-0" vertex="1">
          <mxGeometry y="208" width="340" height="8" as="geometry" />
        </mxCell>
        <mxCell id="3hRopzGacqo8IZ4BAXcn-9" value="__init__(): init_system, init_action, init_observation" style="text;align=left;verticalAlign=top;spacingLeft=4;spacingRight=4;overflow=hidden;rotatable=0;points=[[0,0.5],[1,0.5]];portConstraint=eastwest;rounded=0;shadow=0;html=0;" parent="3hRopzGacqo8IZ4BAXcn-0" vertex="1">
          <mxGeometry y="216" width="340" height="26" as="geometry" />
        </mxCell>
        <mxCell id="3hRopzGacqo8IZ4BAXcn-11" value="step()" style="text;align=left;verticalAlign=top;spacingLeft=4;spacingRight=4;overflow=hidden;rotatable=0;points=[[0,0.5],[1,0.5]];portConstraint=eastwest;rounded=0;shadow=0;html=0;" parent="3hRopzGacqo8IZ4BAXcn-0" vertex="1">
          <mxGeometry y="242" width="340" height="26" as="geometry" />
        </mxCell>
        <mxCell id="3hRopzGacqo8IZ4BAXcn-12" value="move_fingers_on_RB(), update_virtual_fingers()" style="text;align=left;verticalAlign=top;spacingLeft=4;spacingRight=4;overflow=hidden;rotatable=0;points=[[0,0.5],[1,0.5]];portConstraint=eastwest;rounded=0;shadow=0;html=0;fillColor=#fff2cc;strokeColor=#d6b656;" parent="3hRopzGacqo8IZ4BAXcn-0" vertex="1">
          <mxGeometry y="268" width="340" height="26" as="geometry" />
        </mxCell>
        <mxCell id="3hRopzGacqo8IZ4BAXcn-13" value="update_product_on_belts()" style="text;align=left;verticalAlign=top;spacingLeft=4;spacingRight=4;overflow=hidden;rotatable=0;points=[[0,0.5],[1,0.5]];portConstraint=eastwest;rounded=0;shadow=0;html=0;fillColor=#fff2cc;strokeColor=#d6b656;" parent="3hRopzGacqo8IZ4BAXcn-0" vertex="1">
          <mxGeometry y="294" width="340" height="26" as="geometry" />
        </mxCell>
        <mxCell id="3hRopzGacqo8IZ4BAXcn-14" value="generate_motion_profile_use_action()" style="text;align=left;verticalAlign=top;spacingLeft=4;spacingRight=4;overflow=hidden;rotatable=0;points=[[0,0.5],[1,0.5]];portConstraint=eastwest;rounded=0;shadow=0;html=0;fillColor=#fff2cc;strokeColor=#d6b656;" parent="3hRopzGacqo8IZ4BAXcn-0" vertex="1">
          <mxGeometry y="320" width="340" height="26" as="geometry" />
        </mxCell>
        <mxCell id="3hRopzGacqo8IZ4BAXcn-15" value="follow_motion_profile() " style="text;align=left;verticalAlign=top;spacingLeft=4;spacingRight=4;overflow=hidden;rotatable=0;points=[[0,0.5],[1,0.5]];portConstraint=eastwest;rounded=0;shadow=0;html=0;fillColor=#fff2cc;strokeColor=#d6b656;" parent="3hRopzGacqo8IZ4BAXcn-0" vertex="1">
          <mxGeometry y="346" width="340" height="26" as="geometry" />
        </mxCell>
        <mxCell id="3hRopzGacqo8IZ4BAXcn-10" value="check_product_generation()" style="text;align=left;verticalAlign=top;spacingLeft=4;spacingRight=4;overflow=hidden;rotatable=0;points=[[0,0.5],[1,0.5]];portConstraint=eastwest;rounded=0;shadow=0;html=0;fillColor=#fff2cc;strokeColor=#d6b656;" parent="3hRopzGacqo8IZ4BAXcn-0" vertex="1">
          <mxGeometry y="372" width="340" height="26" as="geometry" />
        </mxCell>
        <mxCell id="3hRopzGacqo8IZ4BAXcn-16" value="product_step()" style="text;align=left;verticalAlign=top;spacingLeft=4;spacingRight=4;overflow=hidden;rotatable=0;points=[[0,0.5],[1,0.5]];portConstraint=eastwest;rounded=0;shadow=0;html=0;fillColor=#fff2cc;strokeColor=#d6b656;" parent="3hRopzGacqo8IZ4BAXcn-0" vertex="1">
          <mxGeometry y="398" width="340" height="26" as="geometry" />
        </mxCell>
        <mxCell id="3hRopzGacqo8IZ4BAXcn-19" value="check_product_finger_collision()&#xa;" style="text;align=left;verticalAlign=top;spacingLeft=4;spacingRight=4;overflow=hidden;rotatable=0;points=[[0,0.5],[1,0.5]];portConstraint=eastwest;rounded=0;shadow=0;html=0;fillColor=#fff2cc;strokeColor=#d6b656;" parent="3hRopzGacqo8IZ4BAXcn-0" vertex="1">
          <mxGeometry y="424" width="340" height="26" as="geometry" />
        </mxCell>
        <mxCell id="3hRopzGacqo8IZ4BAXcn-18" value="check_throughput_without_product()" style="text;align=left;verticalAlign=top;spacingLeft=4;spacingRight=4;overflow=hidden;rotatable=0;points=[[0,0.5],[1,0.5]];portConstraint=eastwest;rounded=0;shadow=0;html=0;fillColor=#fff2cc;strokeColor=#d6b656;" parent="3hRopzGacqo8IZ4BAXcn-0" vertex="1">
          <mxGeometry y="450" width="340" height="26" as="geometry" />
        </mxCell>
        <mxCell id="3hRopzGacqo8IZ4BAXcn-20" style="edgeStyle=orthogonalEdgeStyle;rounded=0;orthogonalLoop=1;jettySize=auto;html=1;exitX=1;exitY=0.5;exitDx=0;exitDy=0;" parent="3hRopzGacqo8IZ4BAXcn-0" source="3hRopzGacqo8IZ4BAXcn-21" target="3hRopzGacqo8IZ4BAXcn-14" edge="1">
          <mxGeometry relative="1" as="geometry" />
        </mxCell>
        <mxCell id="3hRopzGacqo8IZ4BAXcn-17" value="check_if_action_needed()" style="text;align=left;verticalAlign=top;spacingLeft=4;spacingRight=4;overflow=hidden;rotatable=0;points=[[0,0.5],[1,0.5]];portConstraint=eastwest;rounded=0;shadow=0;html=0;fillColor=#fff2cc;strokeColor=#d6b656;" parent="3hRopzGacqo8IZ4BAXcn-0" vertex="1">
          <mxGeometry y="476" width="340" height="26" as="geometry" />
        </mxCell>
        <mxCell id="3hRopzGacqo8IZ4BAXcn-21" value="__get_action_time(self, product, belt) -&gt; time_acc, const, dec" style="text;align=left;verticalAlign=top;spacingLeft=4;spacingRight=4;overflow=hidden;rotatable=0;points=[[0,0.5],[1,0.5]];portConstraint=eastwest;rounded=0;shadow=0;html=0;" parent="3hRopzGacqo8IZ4BAXcn-0" vertex="1">
          <mxGeometry y="502" width="340" height="26" as="geometry" />
        </mxCell>
        <mxCell id="gf4zYg6JCa-bxgnwJzSg-2" value="" style="curved=1;endArrow=classic;html=1;rounded=0;exitX=1;exitY=0.75;exitDx=0;exitDy=0;entryX=1;entryY=0.25;entryDx=0;entryDy=0;" parent="WIyWlLk6GJQsqaUBKTNV-1" source="DyAQQPeKOM944tEzWXb_-1" target="DyAQQPeKOM944tEzWXb_-1" edge="1">
          <mxGeometry width="50" height="50" relative="1" as="geometry">
            <mxPoint x="461" y="1053" as="sourcePoint" />
            <mxPoint x="461" y="1023" as="targetPoint" />
            <Array as="points">
              <mxPoint x="427" y="1052" />
              <mxPoint x="427" y="1036" />
            </Array>
          </mxGeometry>
        </mxCell>
        <mxCell id="gf4zYg6JCa-bxgnwJzSg-3" value="Action at T" style="text;html=1;align=center;verticalAlign=middle;resizable=0;points=[];autosize=1;strokeColor=none;fillColor=none;" parent="WIyWlLk6GJQsqaUBKTNV-1" vertex="1">
          <mxGeometry x="583" y="1037" width="75" height="26" as="geometry" />
        </mxCell>
        <mxCell id="gf4zYg6JCa-bxgnwJzSg-4" value="Math Block" style="shape=cylinder3;whiteSpace=wrap;html=1;boundedLbl=1;backgroundOutline=1;size=3.7142857142857792;" parent="WIyWlLk6GJQsqaUBKTNV-1" vertex="1">
          <mxGeometry x="595" y="1064" width="65" height="30" as="geometry" />
        </mxCell>
        <mxCell id="gf4zYg6JCa-bxgnwJzSg-6" style="edgeStyle=orthogonalEdgeStyle;rounded=0;orthogonalLoop=1;jettySize=auto;html=1;exitX=0.5;exitY=1;exitDx=0;exitDy=0;entryX=0.5;entryY=0;entryDx=0;entryDy=0;entryPerimeter=0;" parent="WIyWlLk6GJQsqaUBKTNV-1" source="DyAQQPeKOM944tEzWXb_-0" target="gf4zYg6JCa-bxgnwJzSg-4" edge="1">
          <mxGeometry relative="1" as="geometry" />
        </mxCell>
        <mxCell id="gf4zYg6JCa-bxgnwJzSg-10" style="edgeStyle=orthogonalEdgeStyle;rounded=0;orthogonalLoop=1;jettySize=auto;html=1;exitX=0.5;exitY=1;exitDx=0;exitDy=0;exitPerimeter=0;entryX=0.454;entryY=0.971;entryDx=0;entryDy=0;entryPerimeter=0;" parent="WIyWlLk6GJQsqaUBKTNV-1" source="gf4zYg6JCa-bxgnwJzSg-4" target="DyAQQPeKOM944tEzWXb_-1" edge="1">
          <mxGeometry relative="1" as="geometry">
            <Array as="points">
              <mxPoint x="629" y="1094" />
              <mxPoint x="629" y="1100" />
              <mxPoint x="344" y="1100" />
            </Array>
          </mxGeometry>
        </mxCell>
        <mxCell id="3PrA787kGr7EgVV1KZQM-0" value="" style="endArrow=classic;html=1;rounded=0;" edge="1" parent="WIyWlLk6GJQsqaUBKTNV-1">
          <mxGeometry width="50" height="50" relative="1" as="geometry">
            <mxPoint x="-680" y="960" as="sourcePoint" />
            <mxPoint x="-320" y="960" as="targetPoint" />
          </mxGeometry>
        </mxCell>
        <mxCell id="3PrA787kGr7EgVV1KZQM-1" value="" style="endArrow=classic;html=1;rounded=0;" edge="1" parent="WIyWlLk6GJQsqaUBKTNV-1">
          <mxGeometry width="50" height="50" relative="1" as="geometry">
            <mxPoint x="-680" y="1020" as="sourcePoint" />
            <mxPoint x="-680" y="900" as="targetPoint" />
          </mxGeometry>
        </mxCell>
        <mxCell id="3PrA787kGr7EgVV1KZQM-2" value="" style="curved=1;endArrow=none;html=1;rounded=0;startFill=0;fillColor=#d80073;strokeColor=#A50040;" edge="1" parent="WIyWlLk6GJQsqaUBKTNV-1">
          <mxGeometry width="50" height="50" relative="1" as="geometry">
            <mxPoint x="-520" y="960" as="sourcePoint" />
            <mxPoint x="-680" y="960" as="targetPoint" />
            <Array as="points">
              <mxPoint x="-530" y="920" />
              <mxPoint x="-590" y="920" />
              <mxPoint x="-610" y="1000" />
              <mxPoint x="-670" y="1000" />
            </Array>
          </mxGeometry>
        </mxCell>
        <mxCell id="3PrA787kGr7EgVV1KZQM-4" value="Time" style="text;html=1;align=center;verticalAlign=middle;resizable=0;points=[];autosize=1;strokeColor=none;fillColor=none;" vertex="1" parent="WIyWlLk6GJQsqaUBKTNV-1">
          <mxGeometry x="-380" y="960" width="50" height="30" as="geometry" />
        </mxCell>
        <mxCell id="3PrA787kGr7EgVV1KZQM-5" value="Acceleration" style="text;html=1;align=center;verticalAlign=middle;resizable=0;points=[];autosize=1;strokeColor=none;fillColor=none;flipV=1;rotation=-90;" vertex="1" parent="WIyWlLk6GJQsqaUBKTNV-1">
          <mxGeometry x="-740" y="950" width="90" height="30" as="geometry" />
        </mxCell>
        <mxCell id="3PrA787kGr7EgVV1KZQM-6" value="" style="curved=1;endArrow=none;html=1;rounded=0;startFill=0;fillColor=#008a00;strokeColor=#005700;" edge="1" parent="WIyWlLk6GJQsqaUBKTNV-1">
          <mxGeometry width="50" height="50" relative="1" as="geometry">
            <mxPoint x="-520" y="1070" as="sourcePoint" />
            <mxPoint x="-680" y="1070" as="targetPoint" />
            <Array as="points">
              <mxPoint x="-530" y="1030" />
              <mxPoint x="-590" y="1030" />
              <mxPoint x="-610" y="1110" />
              <mxPoint x="-670" y="1110" />
            </Array>
          </mxGeometry>
        </mxCell>
      </root>
    </mxGraphModel>
  </diagram>
</mxfile>
